<?xml version="1.0" encoding="utf-8"?>
<!-- Generator: Adobe Illustrator 19.2.1, SVG Export Plug-In . SVG Version: 6.00 Build 0)  -->
<svg version="1.1" id="Capa_1" xmlns="http://www.w3.org/2000/svg" xmlns:xlink="http://www.w3.org/1999/xlink" x="0px" y="0px"
	 viewBox="0 0 62 62" style="enable-background:new 0 0 62 62;" xml:space="preserve">
<style type="text/css">
	.st0{fill:#FFFFFF;}
</style>
<path class="st0" d="M45.9,12.7c-0.5-0.1-1.1,0.1-1.5,0.4L36.8,19c0.4-0.8,0.6-1.7,0.5-2.6c-0.1-1.3-0.7-2.5-1.7-3.3
	c-1-0.8-2.2-1.2-3.5-1.1c-1.3,0.1-2.5,0.7-3.3,1.7c-0.8,1-1.2,2.2-1.1,3.5c0.1,1.1,0.6,2.1,1.3,2.9c-1.1,0.3-2.1,0.9-2.8,1.9
	l-7.6,10.4c-0.4,0.6-0.5,1.4-0.1,2.1c0.4,0.7,1.1,1,1.8,1l2.3-0.2c0.6,0,1.1-0.3,1.4-0.8l4.6-6.1l0.3,4.1l-2.3,15.7
	c-0.9,0.2-1.7,0.3-2.6,0.5l0.3,1.9c3-0.4,6-1.2,8.9-2.2c5.6-2,10-5,13.5-7.9l0.2-0.1l0-0.1c3.3-2.9,5.7-5.7,7.1-7.8
	c0.2-0.3,0.2-0.6,0.1-0.9c-0.1-0.3-0.4-0.5-0.7-0.6L52,30.7l5.4-3l1.3,5.8L57.4,33c-0.4-0.1-0.9,0-1.1,0.4l-0.2,0.2
	C44,52.1,30.5,56.6,21.3,57.1l0.1,1.9c9.6-0.5,23.6-5.1,36.2-24l2.2,0.7c0.3,0.1,0.7,0,1-0.2c0.3-0.2,0.4-0.6,0.3-0.9L59,26
	c-0.1-0.3-0.3-0.5-0.5-0.7c-0.3-0.1-0.6-0.1-0.9,0l-8.7,4.8c-0.3,0.2-0.5,0.6-0.5,1c0.1,0.4,0.3,0.7,0.7,0.8l2.5,0.6
	c-1.3,1.7-3,3.7-5.3,5.7l-1.7-5.8c-0.2-0.5-0.5-0.9-1-1.1l-4-2.1L39,24.5l8.9-6.8c0.8-0.6,1-1.8,0.4-2.6l-1.1-1.6
	C46.9,13.1,46.4,12.8,45.9,12.7L45.9,12.7z M32.3,13.9c0.1,0,0.2,0,0.2,0c0.7,0,1.3,0.2,1.9,0.7c0.6,0.5,1,1.2,1,2
	c0.1,0.8-0.2,1.5-0.7,2.1c-0.5,0.6-1.2,1-2,1c-0.8,0.1-1.5-0.2-2.1-0.7c-0.6-0.5-1-1.2-1-2C29.5,15.4,30.7,14,32.3,13.9L32.3,13.9z
	 M33.6,46.2l2-11.6l3.6,1.7l2.1,5.9C39,43.7,36.5,45,33.6,46.2L33.6,46.2z M37.4,23.3c-0.3,0.2-0.4,0.6-0.4,0.9l0.8,5.8
	c0,0.3,0.2,0.6,0.5,0.7l4.4,2.3l2,6.6c-0.6,0.5-1.2,0.9-1.8,1.4L41,35.6c-0.2-0.5-0.5-0.8-0.9-1l-4.7-2.3c-0.3-0.1-0.6-0.1-0.9,0
	c-0.3,0.1-0.5,0.4-0.5,0.7l-2.4,14c-0.9,0.3-1.8,0.6-2.8,0.8l2.2-15c0-0.1,0-0.1,0-0.2l-0.6-6.7c0-0.4-0.3-0.7-0.7-0.8
	c-0.4-0.1-0.8,0-1,0.3l-6.1,8.1l-2.3,0.2l7.6-10.4c0.5-0.7,1.3-1.2,2.1-1.2l3-0.3h0l3.9-0.3c0.2,0,0.4-0.1,0.5-0.2l8.3-6.5l1.1,1.6
	L37.4,23.3z M2,53.3h1.5c0.1,0.3,0.2,0.6,0.3,0.8l-1,1c-0.2,0.2-0.3,0.4-0.3,0.7c0,0.3,0.1,0.5,0.3,0.7l2.7,2.7c0.4,0.4,1,0.4,1.4,0
	l1-1c0.3,0.1,0.6,0.2,0.8,0.3V60c0,0.5,0.4,1,1,1h3.9c0.5,0,1-0.4,1-1v-1.5c0.3-0.1,0.6-0.2,0.8-0.3l1,1c0.2,0.2,0.4,0.3,0.7,0.3
	c0.3,0,0.5-0.1,0.7-0.3l2.7-2.7c0.2-0.2,0.3-0.4,0.3-0.7c0-0.3-0.1-0.5-0.3-0.7l-1-1c0.1-0.3,0.2-0.6,0.3-0.8h1.5c0.5,0,1-0.4,1-1
	v-3.9c0-0.5-0.4-1-1-1h-1.5c-0.1-0.3-0.2-0.6-0.3-0.8l1-1c0.2-0.2,0.3-0.4,0.3-0.7s-0.1-0.5-0.3-0.7l-2.7-2.7c-0.4-0.4-1-0.4-1.4,0
	l-1,1c-0.3-0.1-0.6-0.2-0.8-0.3v-1.5c0-0.5-0.4-1-1-1H9.7c-0.5,0-1,0.4-1,1v1.5c-0.3,0.1-0.6,0.2-0.8,0.3l-1-1
	c-0.2-0.2-0.4-0.3-0.7-0.3c-0.3,0-0.5,0.1-0.7,0.3l-2.7,2.7c-0.2,0.2-0.3,0.4-0.3,0.7s0.1,0.5,0.3,0.7l1,1c-0.1,0.3-0.2,0.6-0.3,0.8
	H2c-0.5,0-1,0.4-1,1v3.9C1,52.8,1.4,53.3,2,53.3L2,53.3z M2.9,49.4h1.2c0.4,0,0.8-0.3,0.9-0.7c0.2-0.6,0.4-1.2,0.7-1.7
	C6,46.5,6,46.1,5.7,45.7l-0.9-0.9l1.4-1.4L7,44.4c0.3,0.3,0.8,0.4,1.2,0.1c0.5-0.3,1.1-0.6,1.7-0.7c0.4-0.1,0.7-0.5,0.7-0.9v-1.2
	h1.9v1.2c0,0.4,0.3,0.8,0.7,0.9c0.6,0.2,1.2,0.4,1.7,0.7c0.4,0.2,0.9,0.2,1.2-0.1l0.9-0.9l1.4,1.4l-0.9,0.9
	c-0.3,0.3-0.4,0.8-0.1,1.2c0.3,0.5,0.6,1.1,0.7,1.7c0.1,0.4,0.5,0.7,0.9,0.7h1.2v1.9h-1.2c-0.4,0-0.8,0.3-0.9,0.7
	c-0.2,0.6-0.4,1.2-0.7,1.7c-0.2,0.4-0.2,0.9,0.1,1.2l0.9,0.9l-1.4,1.4l-0.9-0.9c-0.3-0.3-0.8-0.4-1.2-0.1c-0.5,0.3-1.1,0.6-1.7,0.7
	c-0.4,0.1-0.7,0.5-0.7,0.9v1.2h-1.9v-1.2c0-0.4-0.3-0.8-0.7-0.9c-0.6-0.2-1.2-0.4-1.7-0.7C7.8,56,7.3,56,7,56.3l-0.9,0.9l-1.4-1.4
	L5.7,55C6,54.7,6,54.2,5.8,53.8c-0.3-0.5-0.6-1.1-0.7-1.7c-0.1-0.4-0.5-0.7-0.9-0.7H2.9V49.4z M11.6,55.2c2.7,0,4.8-2.2,4.8-4.8
	c0-2.7-2.2-4.8-4.8-4.8s-4.8,2.2-4.8,4.8C6.8,53,9,55.2,11.6,55.2L11.6,55.2z M11.6,47.5c1.6,0,2.9,1.3,2.9,2.9s-1.3,2.9-2.9,2.9
	c-1.6,0-2.9-1.3-2.9-2.9S10,47.5,11.6,47.5L11.6,47.5z M60.9,6.1c-0.1-0.3-0.4-0.6-0.8-0.6l-3.5-0.5l-1.6-3.4
	C54.9,1.2,54.6,1,54.2,1s-0.7,0.2-0.9,0.6l-1.6,3.4l-3.5,0.5c-0.4,0.1-0.7,0.3-0.8,0.6c-0.1,0.3,0,0.7,0.2,1l2.6,2.6l-0.6,3.7
	c-0.1,0.4,0.1,0.7,0.4,0.9c0.3,0.2,0.7,0.2,1,0.1l3.1-1.7l3.1,1.7c0.1,0.1,0.3,0.1,0.5,0.1c0.2,0,0.4-0.1,0.6-0.2
	c0.3-0.2,0.5-0.6,0.4-0.9l-0.6-3.7l2.6-2.6C61,6.8,61.1,6.4,60.9,6.1L60.9,6.1z M56.4,8.7c-0.2,0.2-0.3,0.5-0.3,0.8l0.4,2.2l-1.8-1
	c-0.1-0.1-0.3-0.1-0.5-0.1c-0.2,0-0.3,0-0.5,0.1l-1.8,1l0.4-2.2c0-0.3,0-0.6-0.3-0.8l-1.6-1.6l2.2-0.3c0.3,0,0.6-0.3,0.7-0.5l0.9-2
	l0.9,2c0.1,0.3,0.4,0.5,0.7,0.5L58,7.1L56.4,8.7z"/>
</svg>
