<?xml version="1.0" encoding="utf-8"?>
<!-- Generator: Adobe Illustrator 19.2.1, SVG Export Plug-In . SVG Version: 6.00 Build 0)  -->
<svg version="1.1" id="Capa_1" xmlns="http://www.w3.org/2000/svg" xmlns:xlink="http://www.w3.org/1999/xlink" x="0px" y="0px"
	 viewBox="0 0 62 62" style="enable-background:new 0 0 62 62;" xml:space="preserve">
<style type="text/css">
	.st0{fill:#FFFFFF;}
</style>
<g>
	<g>
		<g>
			<path class="st0" d="M44.6,6.6C41,3,36.1,1,31,1c0,0-0.1,0-0.1,0c-5,0-9.7,2-13.4,5.5c-3.6,3.5-5.7,8.2-5.8,13.2
				c-0.1,5.2,1.8,10.2,5.4,13.9c2.8,3,4.4,6.9,4.4,11.1v8c0,1.7,1.1,3,2.7,3.4v1.1c0,2.1,1.7,3.7,3.7,3.7h6.2c2.1,0,3.7-1.7,3.7-3.7
				v-1.1c1.6-0.4,2.7-1.8,2.7-3.4v-8c0-4.1,1.6-8.1,4.5-11.2c3.4-3.6,5.3-8.3,5.3-13.2C50.3,15.1,48.3,10.3,44.6,6.6z M35.5,57.3
				c0,0.8-0.6,1.4-1.4,1.4h-6.2c-0.8,0-1.4-0.6-1.4-1.4v-1h8.9V57.3z M38.2,52.8c0,0.6-0.5,1.2-1.2,1.2h-0.4H25.4H25
				c-0.6,0-1.2-0.5-1.2-1.2v-6.7h14.3L38.2,52.8L38.2,52.8z M29.2,43.8V29h3.7v14.8L29.2,43.8L29.2,43.8z M43.3,31.9
				c-3.1,3.3-4.9,7.5-5.1,11.8h-3V29h1.1c1.9,0,3.4-1.5,3.4-3.4v-0.2c0-1.9-1.5-3.4-3.4-3.4c-1.9,0-3.4,1.5-3.4,3.4v1.2h-3.7v-1.2
				c0-1.9-1.5-3.4-3.4-3.4h-0.2c-1.9,0-3.4,1.5-3.4,3.4v0.2c0,1.9,1.5,3.4,3.4,3.4h1.3v14.8h-3c-0.2-4.4-2-8.6-5-11.7
				c-3.2-3.3-4.9-7.6-4.7-12.2c0.2-9,7.8-16.4,16.8-16.5c4.6,0,8.8,1.7,12.1,4.9c3.2,3.2,5,7.5,5,12C48,24.6,46.3,28.8,43.3,31.9z
				 M35.2,26.6v-1.2c0-0.6,0.5-1.1,1.1-1.1c0.6,0,1.1,0.5,1.1,1.1v0.2c0,0.6-0.5,1.1-1.1,1.1H35.2z M26.8,25.4v1.2l0,0h-1.3
				c-0.6,0-1.1-0.5-1.1-1.1v-0.2c0-0.6,0.5-1.1,1.1-1.1h0.2C26.4,24.3,26.8,24.8,26.8,25.4z"/>
		</g>
	</g>
	<g>
		<g>
			<path class="st0" d="M43.6,15.2c-1-2.5-2.7-4.6-5-6.2c-2.3-1.6-5-2.4-7.7-2.4c-0.6,0-1.2,0.5-1.2,1.2c0,0.6,0.5,1.2,1.2,1.2
				c0,0,0,0,0,0c0,0,0.1,0,0.1,0c4.6,0,8.7,2.8,10.4,7c0.2,0.5,0.6,0.7,1.1,0.7c0.1,0,0.3,0,0.4-0.1C43.5,16.5,43.8,15.8,43.6,15.2z
				"/>
		</g>
	</g>
	<g>
		<g>
			<path class="st0" d="M44.2,19.5c-0.2-0.2-0.5-0.3-0.8-0.3s-0.6,0.1-0.8,0.3c-0.2,0.2-0.3,0.5-0.3,0.8c0,0.3,0.1,0.6,0.3,0.8
				c0.2,0.2,0.5,0.3,0.8,0.3c0.3,0,0.6-0.1,0.8-0.3c0.2-0.2,0.3-0.5,0.3-0.8C44.6,20,44.4,19.7,44.2,19.5z"/>
		</g>
	</g>
	<g>
		<g>
			<path class="st0" d="M55.4,6.8c-0.5-0.5-1.2-0.5-1.7,0L51.6,9c-0.5,0.5-0.5,1.2,0,1.7c0.2,0.2,0.5,0.3,0.8,0.3
				c0.3,0,0.6-0.1,0.8-0.3l2.2-2.2C55.9,8,55.9,7.3,55.4,6.8z"/>
		</g>
	</g>
	<g>
		<g>
			<path class="st0" d="M55.4,32.1l-2.2-2.2c-0.5-0.5-1.2-0.5-1.7,0c-0.5,0.5-0.5,1.2,0,1.7l2.2,2.2c0.2,0.2,0.5,0.3,0.8,0.3
				c0.3,0,0.6-0.1,0.8-0.3C55.9,33.3,55.9,32.6,55.4,32.1z"/>
		</g>
	</g>
	<g>
		<g>
			<path class="st0" d="M59.8,19.1h-3.1c-0.6,0-1.2,0.5-1.2,1.2c0,0.6,0.5,1.2,1.2,1.2h3.1c0.6,0,1.2-0.5,1.2-1.2
				C61,19.6,60.5,19.1,59.8,19.1z"/>
		</g>
	</g>
	<g>
		<g>
			<path class="st0" d="M10.4,9L8.2,6.8C7.8,6.4,7,6.4,6.6,6.8C6.1,7.3,6.1,8,6.6,8.5l2.2,2.2C9,10.9,9.3,11,9.6,11
				c0.3,0,0.6-0.1,0.8-0.3C10.9,10.2,10.9,9.5,10.4,9z"/>
		</g>
	</g>
	<g>
		<g>
			<path class="st0" d="M10.4,29.9c-0.5-0.5-1.2-0.5-1.7,0l-2.2,2.2c-0.5,0.5-0.5,1.2,0,1.7c0.2,0.2,0.5,0.3,0.8,0.3
				c0.3,0,0.6-0.1,0.8-0.3l2.2-2.2C10.9,31.1,10.9,30.4,10.4,29.9z"/>
		</g>
	</g>
	<g>
		<g>
			<path class="st0" d="M5.3,19.1H2.2c-0.6,0-1.2,0.5-1.2,1.2c0,0.6,0.5,1.2,1.2,1.2h3.1c0.6,0,1.2-0.5,1.2-1.2
				C6.4,19.6,5.9,19.1,5.3,19.1z"/>
		</g>
	</g>
</g>
</svg>
