<?xml version="1.0" encoding="utf-8"?>
<!-- Generator: Adobe Illustrator 19.2.1, SVG Export Plug-In . SVG Version: 6.00 Build 0)  -->
<svg version="1.1" id="Capa_1" xmlns="http://www.w3.org/2000/svg" xmlns:xlink="http://www.w3.org/1999/xlink" x="0px" y="0px"
	 viewBox="0 0 70 70" style="enable-background:new 0 0 70 70;" xml:space="preserve">
<style type="text/css">
	.st0{fill:#FFFFFF;}
</style>
<path class="st0" d="M65,17.5c0-2.1-1.7-3.7-3.8-3.7h-5v2.5h5c0.7,0,1.3,0.6,1.3,1.3v33.4l-6.2-6.2c3-5.3,2.2-12.2-2.3-16.8
	c-0.1-0.1-0.1-0.1-0.2-0.2V6.3c0-0.7-0.6-1.3-1.2-1.3H26.2c-0.1,0-0.1,0-0.2,0c0,0,0,0,0,0c0,0,0,0-0.1,0c0,0,0,0-0.1,0c0,0,0,0,0,0
	c0,0-0.1,0-0.1,0c0,0,0,0,0,0c0,0-0.1,0-0.1,0c0,0,0,0,0,0c0,0-0.1,0-0.1,0c0,0,0,0,0,0c0,0,0,0-0.1,0c0,0-0.1,0.1-0.1,0.1l-8.7,8.7
	c-0.2,0.2-0.4,0.6-0.4,0.9v25h-2.5v2.5h3.7h1.2h12.1c1.9,5.4,7.1,9.3,13.2,9.3c2.4,0,4.8-0.6,6.9-1.8l3.7,3.7H8.8
	c-0.7,0-1.3-0.6-1.3-1.2v-35c0-0.7,0.6-1.3,1.3-1.3h5v-2.5h-5c-2.1,0-3.8,1.7-3.8,3.7v35c0,2.1,1.7,3.8,3.8,3.8h18.1
	c-0.6,6-5.6,6.2-6.2,6.3c-0.7,0-1.2,0.6-1.2,1.3c0,0.7,0.6,1.2,1.2,1.2h28.8c0.7,0,1.3-0.6,1.3-1.2c0-0.7-0.6-1.3-1.3-1.3
	c-0.2,0-5.6-0.1-6.2-6.3h13.9l1.4,1.4c0.7,0.7,1.7,1.1,2.7,1.1c1,0,2-0.4,2.7-1.1C64.6,56.9,65,56,65,55h0V17.5z M43.4,62.5H26.6
	c1.6-1.7,2.6-3.9,2.7-6.3h11.2C40.8,58.6,41.7,60.8,43.4,62.5z M18.7,40V15.5L25,9.3v4.5h-2.5v2.5h3.8c0.7,0,1.3-0.6,1.3-1.3V7.5
	h23.8v18.3c-2.2-1.3-4.7-2-7.2-2c-2.1,0-4,0.4-5.8,1.3H22.5v2.5h12c-1.2,1.1-2.1,2.3-2.9,3.8h-9.1v2.5h8.1c-0.4,1.3-0.6,2.6-0.6,4
	c0,0.8,0.1,1.5,0.2,2.2H18.7z M32.5,37.8c0-6.4,5.2-11.5,11.5-11.5c3.1,0,6,1.2,8.2,3.4c2.2,2.2,3.4,5.1,3.4,8.2
	c0,3.2-1.3,6-3.3,8.1L52.1,46C50,48,47.2,49.3,44,49.3C37.7,49.3,32.5,44.1,32.5,37.8z M54.9,46.8l1.8,1.8l-1.8,1.8L53,48.6
	L54.9,46.8z M60.3,55.9l-3.6-3.6l1.8-1.8l3.6,3.6c0.3,0.3,0.4,0.6,0.4,0.9v0c0,0.3-0.1,0.7-0.4,0.9C61.6,56.4,60.8,56.4,60.3,55.9z
	 M37.7,31.5l1.8,1.8c2.5-2.5,6.6-2.5,9.1,0l1.8-1.8C46.8,28,41.2,28,37.7,31.5z M10,45v5c0,0.7,0.6,1.3,1.2,1.3h5v-2.5h-3.8V45H10z
	 M18.7,48.8v2.5h2.5v-2.5H18.7z M47.5,18.7h-25v2.5h25V18.7z"/>
</svg>
