<?xml version="1.0" encoding="utf-8"?>
<!-- Generator: Adobe Illustrator 19.2.1, SVG Export Plug-In . SVG Version: 6.00 Build 0)  -->
<svg version="1.1" id="Capa_1" xmlns="http://www.w3.org/2000/svg" xmlns:xlink="http://www.w3.org/1999/xlink" x="0px" y="0px"
	 viewBox="0 0 70 70" style="enable-background:new 0 0 70 70;" xml:space="preserve">
<style type="text/css">
	.st0{fill:#FFFFFF;}
</style>
<path class="st0" d="M65.9,13.7c0-2.6-2.1-4.8-4.8-4.8h-4.9V7.9c0-1.6-1.3-2.8-2.8-2.8H18.4c-1.6,0-2.8,1.3-2.8,2.8v1.1h-4.9
	c-2.6,0-4.8,2.1-4.8,4.8v34.9c0,2.6,2.1,4.8,4.8,4.8h4.1c0.5,0,0.9-0.4,0.9-0.9c0-0.5-0.4-0.9-0.9-0.9h-4.1c-1.7,0-3-1.3-3-3v-1.1
	h56.5v1.1c0,1.7-1.3,3-3,3H18.2c-0.5,0-0.9,0.4-0.9,0.9c0,0.5,0.4,0.9,0.9,0.9h9.9v6h-5c-1,0-1.8,0.8-1.8,1.8v2c0,1,0.8,1.8,1.8,1.8
	h17.7c0.5,0,0.9-0.4,0.9-0.9c0-0.5-0.4-0.9-0.9-0.9H23.2c0,0-0.1,0-0.1-0.1v-2c0,0,0-0.1,0.1-0.1h25.3c0,0,0.1,0,0.1,0.1v2
	c0,0,0,0.1-0.1,0.1h-4.1c-0.5,0-0.9,0.4-0.9,0.9c0,0.5,0.4,0.9,0.9,0.9h4.1c1,0,1.8-0.8,1.8-1.8v-2c0-1-0.8-1.8-1.8-1.8h-5v-6h17.6
	c2.6,0,4.8-2.1,4.8-4.8V13.7z M36.9,59.4h-2.1v-2c0-0.1,0-0.1,0.1-0.1h1.9c0,0,0.1,0,0.1,0.1V59.4z M41.8,59.4h-3.1v-2
	c0-1-0.8-1.8-1.8-1.8h-1.9c-1,0-1.8,0.8-1.8,1.8v2h-3.1l0-6h11.8V59.4z M60.2,45.8h-4.1V14.6h3c0.6,0,1.1,0.5,1.1,1.1V45.8z
	 M15.6,45.8h-4.1V15.6c0-0.6,0.5-1.1,1.1-1.1h3V45.8z M17.3,35.9h7.9v9.9h-7.9V35.9z M23.1,19.5c0-1.7,1.3-3,3-3c1.7,0,3,1.3,3,3
	c0,1.7-1.3,3-3,3C24.5,22.5,23.1,21.2,23.1,19.5L23.1,19.5z M26.2,24.3c0.7,0,1.3,0.1,1.9,0.4l-1.2,1c-0.4,0.3-0.9,0.3-1.3,0l-1.2-1
	C24.9,24.4,25.5,24.3,26.2,24.3L26.2,24.3z M22.7,25.7l1.7,1.3c0.5,0.4,1.1,0.6,1.8,0.6c0.6,0,1.2-0.2,1.8-0.6l1.7-1.4l1.8,1.2
	c0.5,0.3,1.1,0.4,1.6,0.2c0.5-0.2,1-0.6,1.2-1.1l0.1-0.3l2,0.7l-1.4,3.8c-0.1,0.3-0.4,0.5-0.7,0.6c-0.3,0.1-0.6,0.1-0.9-0.1
	l-0.5-0.3v-1.1c0-0.5-0.4-0.9-0.9-0.9c-0.5,0-0.9,0.4-0.9,0.9v1.6c0,0,0,0,0,0v3.4h-9.9v-4.9C21.2,27.8,21.8,26.6,22.7,25.7
	L22.7,25.7z M35.1,23.5C35.1,23.5,35.1,23.5,35.1,23.5l0.7-1.9c0.1-0.3,0.3-0.5,0.6-0.6c0.2-0.1,0.4-0.1,0.6-0.1l-0.1,0.3
	c-0.1,0.5,0.2,0.9,0.6,1.1c0.1,0,0.1,0,0.2,0c0,0,0,0,0,0c0,0,0,0,0,0L37,24.6l-2-0.7L35.1,23.5z M39.4,20.8
	c-0.1-0.2-0.2-0.4-0.4-0.6l1.6-6.3c0.1-0.5-0.2-0.9-0.6-1.1c-0.5-0.1-0.9,0.2-1.1,0.6l-1.4,5.8c-0.6-0.1-1.2-0.1-1.8,0.2
	c-0.3,0.2-0.6,0.4-0.9,0.6v-9.2c0-0.1,0-0.1,0.1-0.1h15.5c0.1,0,0.1,0,0.1,0.1v11.6c0,0.1,0,0.1-0.1,0.1H39.6
	C39.7,21.9,39.6,21.3,39.4,20.8L39.4,20.8z M27,35.9h27.4v9.9H27V35.9z M18.4,6.8h34.9c0.6,0,1.1,0.5,1.1,1.1v26.3H32.9v-1.8
	c0.3,0.1,0.7,0.2,1.1,0.2c0.3,0,0.6,0,0.9-0.1c0.8-0.3,1.5-0.9,1.8-1.7l2.4-6.5h11.4c1,0,1.8-0.8,1.8-1.9V10.8c0-1-0.8-1.9-1.8-1.9
	H34.9c-1,0-1.8,0.8-1.8,1.9v11.6c0,0.3,0.1,0.7,0.3,0.9l-0.7,2c0,0,0,0-0.1,0.1c0,0-0.1,0-0.1,0l-2.3-1.6c-0.3-0.2-0.6-0.4-1-0.6
	c1.1-0.9,1.8-2.2,1.8-3.7c0-2.6-2.1-4.8-4.8-4.8s-4.8,2.1-4.8,4.8c0,1.5,0.7,2.8,1.8,3.7c-0.3,0.2-0.6,0.3-0.9,0.6
	c0,0-0.1,0.1-0.1,0.1c-1.6,1.2-2.7,3.2-2.7,5.4v4.9h-2.1V7.9C17.3,7.3,17.8,6.8,18.4,6.8L18.4,6.8z M7.6,13.7c0-1.7,1.3-3,3-3h4.9
	v2.1h-3c-1.6,0-2.8,1.3-2.8,2.8v30.2H7.6V13.7z M62,45.8V15.6c0-1.6-1.3-2.8-2.8-2.8h-3v-2.1h4.9c1.7,0,3,1.3,3,3v32.1H62z M51.4,40
	H36.6c-0.4-1.1-1.4-1.9-2.7-1.9c-1.2,0-2.3,0.8-2.7,1.9H30c-0.5,0-0.9,0.4-0.9,0.9c0,0.5,0.4,0.9,0.9,0.9h1.2
	c0.4,1.1,1.4,1.9,2.7,1.9c1.2,0,2.3-0.8,2.7-1.9h14.8c0.5,0,0.9-0.4,0.9-0.9C52.3,40.4,51.9,40,51.4,40L51.4,40z M33.9,41.9
	c-0.6,0-1.1-0.5-1.1-1.1c0-0.6,0.5-1.1,1.1-1.1c0.6,0,1.1,0.5,1.1,1.1C35,41.4,34.5,41.9,33.9,41.9L33.9,41.9z M21.8,40h-1
	c-0.5,0-0.9,0.4-0.9,0.9c0,0.5,0.4,0.9,0.9,0.9h1c0.5,0,0.9-0.4,0.9-0.9C22.7,40.4,22.3,40,21.8,40L21.8,40z"/>
</svg>
