<?xml version="1.0" encoding="utf-8"?>
<!-- Generator: Adobe Illustrator 19.2.1, SVG Export Plug-In . SVG Version: 6.00 Build 0)  -->
<svg version="1.1" id="Capa_1" xmlns="http://www.w3.org/2000/svg" xmlns:xlink="http://www.w3.org/1999/xlink" x="0px" y="0px"
	 viewBox="0 0 70 70" style="enable-background:new 0 0 70 70;" xml:space="preserve">
<style type="text/css">
	.st0{fill:#FFFFFF;}
</style>
<path class="st0" d="M61,27.1c-2.8-2.8-6.7-4.3-11.1-4.3c-2.6,0-5.1,0.6-7.3,1.9V10.8C42.6,7.6,40,5,36.8,5H10.9
	c-3.2,0-5.8,2.6-5.8,5.8v16.5c0,3.2,2.6,5.8,5.8,5.8h10.3l8.2,6.4c0.2,0.2,0.5,0.2,0.7,0.2c0.2,0,0.4-0.1,0.6-0.2
	c0.4-0.3,0.6-0.8,0.5-1.3L30,33h5.5c-0.6,1.6-0.8,3.3-0.8,5v16.7c0,6.5,2.9,10.3,7.8,10.3c7.1,0,9.4-5,10.8-7.9l0-0.1
	c1.6-3.3,3.6-4.7,5.6-6.1C62,48.7,65,46.6,65.1,38C65.1,33.6,63.7,29.9,61,27.1L61,27.1z M28.5,30.7c-0.4,0-0.7,0.2-0.9,0.5
	c-0.2,0.3-0.3,0.7-0.2,1l0.8,3.4l-5.8-4.6c-0.2-0.2-0.5-0.2-0.7-0.2H10.9c-1.9,0-3.4-1.5-3.4-3.4V10.8c0-1.9,1.5-3.4,3.4-3.4h25.9
	c1.9,0,3.4,1.5,3.4,3.4v16.5c0,1.9-1.5,3.4-3.4,3.4H28.5z M62.7,38c-0.1,7.4-2.4,9-5.3,11c-2,1.4-4.5,3.2-6.3,7l0,0.1
	c-1.3,2.8-3.1,6.6-8.7,6.6c-4.7,0-5.4-5-5.4-8V38c0-1.8,0.4-3.5,1.1-5.1c2.6-0.5,4.5-2.8,4.5-5.5c2.2-1.5,4.7-2.3,7.3-2.3
	c3.8,0,7.1,1.3,9.5,3.7C61.6,31.1,62.8,34.3,62.7,38L62.7,38z M55.1,36c0.3,0.6,1,0.8,1.6,0.5c0.6-0.3,0.8-1,0.5-1.6
	c-0.4-0.8-0.9-1.5-1.5-2.1c-1.7-1.7-4.2-2.7-6.9-2.7c-2.5,0-4.9,1.2-6.7,3.4c-1.7,2.1-2.6,4.7-2.2,7c0.1,0.9,1,1.2,1.9,1.7
	c1.1,0.5,2.4,1.1,3,2.6c0.8,1.8,0.4,3.4-1.5,6c-0.4,0.5-0.3,1.3,0.3,1.6c0.2,0.1,0.4,0.2,0.7,0.2c0.4,0,0.7-0.2,1-0.5
	c2-2.8,3-5.2,1.7-8.3c-1-2.3-2.9-3.2-4.2-3.8c-0.2-0.1-0.5-0.2-0.6-0.3c-0.1-1.6,0.5-3.3,1.7-4.8c1.4-1.6,3.2-2.5,5-2.5
	c2.1,0,4,0.7,5.2,2C54.4,34.9,54.8,35.5,55.1,36L55.1,36z M56.4,38.5c-0.6,0-1.2,0.5-1.2,1.2c0,2.5-0.4,4.5-2.4,5.9
	c-0.5,0.4-0.7,1.1-0.3,1.6c0.2,0.3,0.6,0.5,1,0.5c0.2,0,0.5-0.1,0.7-0.2c3-2.1,3.4-5.1,3.4-7.8C57.6,39,57.1,38.5,56.4,38.5
	L56.4,38.5z M13.4,13.9h21.8c0.6,0,1.2-0.5,1.2-1.2c0-0.6-0.5-1.2-1.2-1.2H13.4c-0.6,0-1.2,0.5-1.2,1.2
	C12.2,13.4,12.8,13.9,13.4,13.9L13.4,13.9z M35.2,18.2c-0.3,0-0.6,0.1-0.8,0.3C34.1,18.7,34,19,34,19.3c0,0.3,0.1,0.6,0.3,0.8
	c0.2,0.2,0.5,0.3,0.8,0.3c0.3,0,0.6-0.1,0.8-0.3c0.2-0.2,0.3-0.5,0.3-0.8c0-0.3-0.1-0.6-0.3-0.8C35.8,18.3,35.5,18.2,35.2,18.2
	L35.2,18.2z M13.4,20.5h17.1c0.6,0,1.2-0.5,1.2-1.2c0-0.6-0.5-1.2-1.2-1.2H13.4c-0.6,0-1.2,0.5-1.2,1.2C12.2,20,12.8,20.5,13.4,20.5
	L13.4,20.5z M35.2,24.7H18.1c-0.6,0-1.2,0.5-1.2,1.2c0,0.6,0.5,1.2,1.2,1.2h17.1c0.6,0,1.2-0.5,1.2-1.2
	C36.4,25.2,35.8,24.7,35.2,24.7L35.2,24.7z M13.5,24.7L13.5,24.7c-0.7,0-1.3,0.5-1.3,1.2c0,0.6,0.5,1.2,1.2,1.2h0.1
	c0.6,0,1.2-0.5,1.2-1.2C14.7,25.2,14.1,24.7,13.5,24.7L13.5,24.7z"/>
</svg>
