<?xml version="1.0" encoding="utf-8"?>
<!-- Generator: Adobe Illustrator 19.2.1, SVG Export Plug-In . SVG Version: 6.00 Build 0)  -->
<svg version="1.1" id="Capa_1" xmlns="http://www.w3.org/2000/svg" xmlns:xlink="http://www.w3.org/1999/xlink" x="0px" y="0px"
	 viewBox="0 0 70 70" style="enable-background:new 0 0 70 70;" xml:space="preserve">
<style type="text/css">
	.st0{fill:#FFFFFF;}
</style>
<path class="st0" d="M44.7,36c3.2,0,5.8-2.6,5.8-5.8s-2.6-5.8-5.8-5.8c-0.1,0-0.2,0-0.3,0c-1.7-2.4-4.9-3.9-8.4-3.9
	c-4.5,0-8.3,2.4-9.4,5.8c-2.8-0.2-5.1,2.1-5.1,4.8c0,2.7,2.2,4.8,4.8,4.8h6.8v8c-1.3-1.4-3.1-2.2-5.2-2.2c-1.4,0-2.5,1.1-2.5,2.5
	c0,0.4,0.1,0.8,0.3,1.1l1.1,2.3c0.4,0.7,0.5,1.5,0.5,2.3v4c0,1,0.2,2.1,0.7,3l2.2,4.4V65l17.4,0v-3.6l1.5-2.1
	c0.9-1.2,1.4-2.6,1.4-4.1V44.7c0-1.6-1.3-2.9-2.9-2.9c-0.4,0-0.7,0.1-1.1,0.2c-0.3-1.2-1.5-2.1-2.8-2.1c-0.7,0-1.4,0.3-1.9,0.8
	c-0.5-0.5-1.2-0.8-1.9-0.8c-0.3,0-0.7,0.1-1,0.2v-4H44.7z M26.3,34.1c-1.6,0-2.9-1.3-2.9-2.9c0-1.6,1.3-2.9,2.9-2.9
	c0.2,0,0.5,0,0.8,0.1l1.1,0.3l0.2-1.1c0.4-2.9,3.8-5.1,7.7-5.1c3,0,5.8,1.4,7.1,3.5l0.3,0.6l0.7-0.1c0.2,0,0.4-0.1,0.6-0.1
	c2.1,0,3.9,1.7,3.9,3.9s-1.7,3.9-3.9,3.9h-5.8v-2.9c0-1.6-1.3-2.9-2.9-2.9s-2.9,1.3-2.9,2.9v2.9H26.3z M39.9,41.8c0.5,0,1,0.4,1,1
	v3.9h1.9v-3.9c0-0.5,0.4-1,1-1s1,0.4,1,1v3.9h1.9v-1.9c0-0.5,0.4-1,1-1c0.5,0,1,0.4,1,1v10.6c0,1-0.3,2.1-1,2.9l-1.9,2.6v2.3
	l-13.5,0v-2.1l-2.4-4.8c-0.3-0.7-0.5-1.4-0.5-2.2v-4c0-1.1-0.3-2.2-0.7-3.2l-1.1-2.3c0-0.1-0.1-0.2-0.1-0.3c0-0.3,0.3-0.6,0.7-0.6
	c2.8,0,5.1,2.3,5.1,5.1v3.6H35V31.2c0-0.5,0.4-1,1-1c0.5,0,1,0.4,1,1v15.5h1.9v-3.9C38.9,42.2,39.3,41.8,39.9,41.8L39.9,41.8z
	 M10.8,27.3v2.9c0,2.1,1.7,3.9,3.9,3.9c2.1,0,3.9-1.7,3.9-3.9v-2.9c2.9-1.4,4.8-4.4,4.8-7.8c0-4.8-3.9-8.7-8.7-8.7S6,14.8,6,19.6
	C6,23,8,25.9,10.8,27.3L10.8,27.3z M16.6,30.2c0,1.1-0.9,1.9-1.9,1.9s-1.9-0.9-1.9-1.9V28c0.6,0.1,1.3,0.2,1.9,0.2
	c0.7,0,1.3-0.1,1.9-0.2V30.2z M13.7,19.6c0-0.5,0.4-1,1-1c0.5,0,1,0.4,1,1c0,0.5-0.4,1-1,1C14.2,20.5,13.7,20.1,13.7,19.6L13.7,19.6
	z M14.7,12.8c3.7,0,6.8,3,6.8,6.8c0,3.4-2.5,6.2-5.8,6.7v-4c1.1-0.4,1.9-1.5,1.9-2.7c0-1.6-1.3-2.9-2.9-2.9s-2.9,1.3-2.9,2.9
	c0,1.3,0.8,2.3,1.9,2.7v4c-3.3-0.5-5.8-3.3-5.8-6.7C7.9,15.8,11,12.8,14.7,12.8L14.7,12.8z M13.7,5h1.9v3.9h-1.9V5z M8,6.4l1.7-0.9
	l1.9,3.9L10,10.3L8,6.4z M17.7,9.4l1.9-3.9l1.7,0.9l-1.9,3.9L17.7,9.4z M62.3,46.4c1-0.9,1.7-2.2,1.7-3.7c0-2.7-2.2-4.8-4.8-4.8
	c-2.7,0-4.8,2.2-4.8,4.8c0,1.5,0.7,2.8,1.7,3.7c-2.2,1.1-3.7,3.4-3.7,6v4.8H66v-4.8C66,49.8,64.5,47.6,62.3,46.4L62.3,46.4z
	 M56.3,42.8c0-1.6,1.3-2.9,2.9-2.9c1.6,0,2.9,1.3,2.9,2.9c0,1.6-1.3,2.9-2.9,2.9C57.6,45.7,56.3,44.4,56.3,42.8L56.3,42.8z
	 M64.1,55.4h-9.7v-2.9c0-2.7,2.2-4.8,4.8-4.8c2.7,0,4.8,2.2,4.8,4.8V55.4z M60.2,5V7h-3.9v1.9h-3.9v11.6H66V5H60.2z M54.4,10.8h1.9
	v7.7h-1.9V10.8z M58.3,18.6V8.9h1.9v9.7H58.3z M64.1,18.6h-1.9V7h1.9V18.6z M58.3,36h1.9v-3.9h-7.7v1.9h5.8V36z M60.2,22.5h-1.9v5.8
	h-5.8v1.9h7.7V22.5z M9.9,52.5h5.8v1.9H9.9V52.5z M17.6,52.5h1.9v1.9h-1.9V52.5z M9.9,48.6h9.7v1.9H9.9V48.6z M20.5,44.7H8.9
	C7.3,44.7,6,46,6,47.6v7.7c0,1.6,1.3,2.9,2.9,2.9h3.5l3.2,3.2c0.4,0.4,1,0.7,1.7,0.7c1.3,0,2.3-1,2.3-2.3v-1.5h1
	c1.6,0,2.9-1.3,2.9-2.9v-7.7C23.4,46,22.1,44.7,20.5,44.7L20.5,44.7z M21.5,55.4c0,0.5-0.4,1-1,1h-2.9v3.5c0,0.3-0.5,0.5-0.7,0.3
	l-3.8-3.8H8.9c-0.5,0-1-0.4-1-1v-7.7c0-0.5,0.4-1,1-1h11.6c0.5,0,1,0.4,1,1V55.4z M35,18.6H37v-3.9H24.4v1.9H35V18.6z M21.5,38.9
	h-7.7v3.9h1.9v-1.9h7.7V37h-1.9V38.9z"/>
</svg>
