<?xml version="1.0" encoding="utf-8"?>
<!-- Generator: Adobe Illustrator 19.2.1, SVG Export Plug-In . SVG Version: 6.00 Build 0)  -->
<svg version="1.1" id="Capa_1" xmlns="http://www.w3.org/2000/svg" xmlns:xlink="http://www.w3.org/1999/xlink" x="0px" y="0px"
	 viewBox="0 0 70 70" style="enable-background:new 0 0 70 70;" xml:space="preserve">
<style type="text/css">
	.st0{fill:#FFFFFF;}
</style>
<path class="st0" d="M62,30.6h-4V9.4C58,7,56,5,53.6,5H26.1c-0.7,0-1.2,0.5-1.2,1.2c0,0.7,0.6,1.2,1.2,1.2h27.5c1.1,0,2,0.9,2,2
	v15.4L49,20.2c-0.4-0.3-1-0.3-1.5,0l-7.2,5.5l-11.5-9.6c-0.5-0.4-1.1-0.4-1.6,0l-14,11.3v-18c0-1.1,0.9-2,2-2c0.7,0,1.2-0.6,1.2-1.2
	C16.5,5.5,16,5,15.3,5c0,0,0,0,0,0c-2.4,0-4.4,2-4.4,4.4V33c0,2.4,2,4.4,4.4,4.4h14.2v3.5H8c-2.4,0-4.4,2-4.4,4.4v15.2
	C3.5,63,5.5,65,8,65h23.4c2.4,0,4.4-2,4.4-4.4v-4.4h15.3c0.7,0,1.2-0.5,1.2-1.2c0-0.7-0.6-1.2-1.2-1.2H35.8v-8.4
	c0-2.2-1.7-4.1-3.8-4.4v-5.9c0-1.1,0.9-2,2-2H62c1.1,0,2,0.9,2,2v16.8c0,1.1-0.9,2-2,2h-0.2c-0.7,0-1.2,0.6-1.2,1.2
	c0,0.7,0.5,1.2,1.2,1.2H62c2.4,0,4.4-2,4.4-4.4V35.1C66.5,32.6,64.5,30.6,62,30.6L62,30.6z M33.3,60.6c0,1.1-0.9,2-2,2H8
	c-1.1,0-2-0.9-2-2V45.4c0-1.1,0.9-2,2-2h22.8c0.5,0,1,0,1.5,0.2c0.7,0.3,1.1,1,1.1,1.8L33.3,60.6L33.3,60.6z M33.9,30.6
	c-2.4,0-4.4,2-4.4,4.3H15.3c-1.1,0-2-0.9-2-2v-2.4l14.7-11.9l14.4,12L33.9,30.6L33.9,30.6z M46.3,30.6l-4-3.3l6.1-4.6l7.2,5.1v2.8
	H46.3z M20.4,7.4c0.5,0.2,1.1,0.1,1.4-0.4c0.3-0.4,0.4-1,0.1-1.4c-0.6-0.9-2-0.7-2.3,0.4C19.5,6.6,19.8,7.1,20.4,7.4L20.4,7.4z
	 M57.1,54c-0.4-0.3-1-0.3-1.4,0.1c-0.4,0.3-0.6,0.9-0.4,1.4c0.4,1.1,1.9,1.1,2.3,0C57.8,54.9,57.6,54.3,57.1,54L57.1,54z M44.4,51.5
	h3.5c0.5,0,1-0.3,1.2-0.9l1.2-3.9l5.4,0.9c0.1,0,0.1,0,0.2,0c0.3,0,0.6-0.1,0.8-0.3c0.3-0.2,0.4-0.6,0.4-0.9v-4h0.2
	c0.7,0,1.2-0.6,1.2-1.2c0-0.7-0.6-1.2-1.2-1.2h-0.2v-3.4c0-0.4-0.2-0.7-0.4-0.9c-0.3-0.2-0.6-0.3-1-0.3l-11.4,1.8h-3.1
	c-1.5,0-2.7,1.2-2.7,2.7v3.3c0,1.5,1.2,2.7,2.7,2.7h2v4.5C43.2,51,43.7,51.5,44.4,51.5L44.4,51.5z M47,49h-1.4v-3l0.2,0l2,0.3L47,49
	z M54.7,45l-9.1-1.4v-4.1l9.1-1.4V45z M41,43.2v-3.3c0-0.1,0.1-0.2,0.2-0.2h2v3.7h-2C41.1,43.4,41,43.3,41,43.2L41,43.2z M24.6,51.6
	l-7.5-4c-0.8-0.4-1.8,0.2-1.8,1.1v8.6c0,0.9,1.1,1.5,1.9,1l7.5-4.6c0.4-0.2,0.6-0.6,0.6-1.1C25.2,52.2,25,51.8,24.6,51.6L24.6,51.6z
	 M17.7,55v-4.3l3.8,2L17.7,55z M44.5,14.3c0-2.3-1.9-4.2-4.2-4.2c-2.3,0-4.2,1.9-4.2,4.2c0,2.3,1.9,4.2,4.2,4.2
	C42.6,18.6,44.5,16.7,44.5,14.3L44.5,14.3z M38.6,14.3c0-1,0.8-1.8,1.8-1.8c1,0,1.8,0.8,1.8,1.8c0,1-0.8,1.8-1.8,1.8
	C39.3,16.1,38.6,15.3,38.6,14.3L38.6,14.3z"/>
</svg>
