<?xml version="1.0" encoding="utf-8"?>
<!-- Generator: Adobe Illustrator 24.0.2, SVG Export Plug-In . SVG Version: 6.00 Build 0)  -->
<svg version="1.1" id="Capa_1" xmlns="http://www.w3.org/2000/svg" xmlns:xlink="http://www.w3.org/1999/xlink" x="0px" y="0px"
	 viewBox="0 0 150 43" style="enable-background:new 0 0 150 43;" xml:space="preserve">
<style type="text/css">
	.st0{fill:#FF6B00;}
</style>
<g id="Traing_00000125574796572694720420000004969936839727497114_">
	<polygon class="st0" points="129.4,22.7 141.1,22.7 141.1,14.5 129.4,21.2 	"/>
	<path class="st0" d="M146.8,8.5h-6.4l-8.6,4.8V8.5h-8.2V2.8h23.1V8.5z M121.2,0.3V11h8.2v6.7l11.7-6.7h8.2V0.3H121.2z"/>
	<path class="st0" d="M5.5,23.1v-7.8h5.9l0.9-4.3H5.5V2.8H0.7v20.3c0,6.1,4.9,11.3,11,11.3h1.5l0.9-4.3h-1.6
		C8.6,30.2,5.5,27,5.5,23.1z"/>
	<path class="st0" d="M49.8,23.1C49.4,27,46.7,30,43.7,30c-4.2,0-7.5-3.4-7.5-7.5s3.4-7.2,7.5-7.2h6.1V23.1z M31.4,22.6
		c0,6.8,5.5,12.2,12.3,12.2c2.6,0,4.8-1.2,5.8-3.6h0.3v3.1h4.5V11H43.7C36.9,11,31.4,15.8,31.4,22.6z"/>
	<rect x="59.7" y="11" class="st0" width="4.8" height="23.3"/>
	<path class="st0" d="M62.1,2.3c-1.7,0-3.1,1.4-3.1,3.1c0,1.7,1.4,3.1,3.1,3.1c1.7,0,3.1-1.4,3.1-3.1C65.2,3.7,63.8,2.3,62.1,2.3z"
		/>
	<path class="st0" d="M81.6,10.5c-2.4,0-5.8,1.4-6.7,2.6h-0.2V11h-4.8v23.3h4.8V20.8c0-2.6,1.9-6,6.9-6c4.1,0,4.9,3.2,4.9,7.3v12.2
		h4.8V22.1C91.2,15.2,89.4,10.5,81.6,10.5z"/>
	<path class="st0" d="M23.3,13.2h-0.2V11h-4.8v23.3h4.8V20.8c0-2.8,1.8-5.8,6.4-6l0.9-4.2c-0.1,0-0.3,0-0.4,0
		C27.7,10.6,24.2,11.9,23.3,13.2z"/>
	<path class="st0" d="M113,22.3c-0.3,3.9-2.1,6.9-6.1,6.9c-4.2,0-7.3-2.6-7.3-6.7s3.1-7.2,7.3-7.2h6.1V22.3z M106.9,11
		c-6.8,0-12,4.8-12,11.6c0,6.8,5.3,11.4,12,11.4c2.1,0,4.4-0.7,5.8-2.8h0.3v0.2c0,3.9-3.2,7-7.1,7c-1.5,0-2.9-0.2-4-1l-0.9,4.1
		c1.5,0.7,3.2,1.1,4.9,1.1c6.1,0,11.8-5.2,11.8-11.3V11H106.9z"/>
</g>
<g>
</g>
<g>
</g>
<g>
</g>
<g>
</g>
<g>
</g>
<g>
</g>
<g>
</g>
<g>
</g>
<g>
</g>
<g>
</g>
<g>
</g>
<g>
</g>
<g>
</g>
<g>
</g>
<g>
</g>
</svg>
