<?xml version="1.0" encoding="utf-8"?>
<!-- Generator: Adobe Illustrator 19.2.1, SVG Export Plug-In . SVG Version: 6.00 Build 0)  -->
<svg version="1.1" id="Capa_1" xmlns="http://www.w3.org/2000/svg" xmlns:xlink="http://www.w3.org/1999/xlink" x="0px" y="0px"
	 viewBox="0 0 62 62" style="enable-background:new 0 0 62 62;" xml:space="preserve">
<style type="text/css">
	.st0{fill:#FFFFFF;}
</style>
<g>
	<path class="st0" d="M61,9.6c0-2.6-2.1-4.8-4.8-4.8h-4.9V3.8C51.3,2.3,50,1,48.5,1H13.5c-1.6,0-2.8,1.3-2.8,2.8v1.1H5.8
		C3.1,4.9,1,7,1,9.6v34.9c0,2.6,2.1,4.8,4.8,4.8h4.1c0.5,0,0.9-0.4,0.9-0.9s-0.4-0.9-0.9-0.9H5.8c-1.7,0-3-1.3-3-3v-1.1h56.5v1.1
		c0,1.7-1.3,3-3,3H13.4c-0.5,0-0.9,0.4-0.9,0.9s0.4,0.9,0.9,0.9h9.9l0,6h-5c-1,0-1.8,0.8-1.8,1.8v2c0,1,0.8,1.8,1.8,1.8H36
		c0.5,0,0.9-0.4,0.9-0.9s-0.4-0.9-0.9-0.9H18.3c0,0-0.1,0-0.1-0.1v-2c0,0,0-0.1,0.1-0.1h25.3c0,0,0.1,0,0.1,0.1v2c0,0,0,0.1-0.1,0.1
		h-4.1c-0.5,0-0.9,0.4-0.9,0.9s0.4,0.9,0.9,0.9h4.1c1,0,1.8-0.8,1.8-1.8v-2c0-1-0.8-1.8-1.8-1.8h-5v-6h17.6c2.6,0,4.8-2.1,4.8-4.8
		L61,9.6L61,9.6z M32.1,55.4h-2.1v-2c0-0.1,0-0.1,0.1-0.1H32c0.1,0,0.1,0,0.1,0.1L32.1,55.4L32.1,55.4z M36.9,55.4h-3.1v-2
		c0-1-0.8-1.8-1.8-1.8H30c-1,0-1.8,0.8-1.8,1.8v2h-3.1l0-6h11.8L36.9,55.4L36.9,55.4z M55.4,41.8h-4.1V10.5h3c0.6,0,1.1,0.5,1.1,1.1
		L55.4,41.8z M10.7,41.8H6.6V11.6c0-0.6,0.5-1.1,1.1-1.1h3L10.7,41.8L10.7,41.8z M12.5,31.9h7.9v9.9h-7.9V31.9z M18.3,15.5
		c0-1.7,1.3-3,3-3c1.7,0,3,1.3,3,3c0,1.7-1.3,3-3,3S18.3,17.1,18.3,15.5z M21.3,20.2c0.7,0,1.3,0.1,1.9,0.4l-1.2,1
		c-0.4,0.3-0.9,0.3-1.3,0l-1.2-1C20,20.4,20.6,20.2,21.3,20.2z M17.9,21.6l1.7,1.3c0.5,0.4,1.1,0.6,1.8,0.6s1.2-0.2,1.8-0.6l1.7-1.4
		l1.8,1.2c0.5,0.3,1.1,0.4,1.6,0.2c0.5-0.2,1-0.6,1.2-1.1l0.1-0.3l2,0.7l-1.4,3.8c-0.1,0.3-0.4,0.5-0.7,0.6
		c-0.3,0.1-0.6,0.1-0.9-0.1L28,26.3v-1.1c0-0.5-0.4-0.9-0.9-0.9s-0.9,0.4-0.9,0.9v1.6c0,0,0,0,0,0v3.4h-9.9v-4.9
		C16.3,23.8,16.9,22.5,17.9,21.6L17.9,21.6z M30.3,19.5C30.3,19.5,30.3,19.5,30.3,19.5l0.7-1.9c0.1-0.3,0.3-0.5,0.6-0.6
		c0.2-0.1,0.4-0.1,0.6-0.1l-0.1,0.3c-0.1,0.5,0.2,0.9,0.6,1.1c0.1,0,0.1,0,0.2,0c0,0,0,0,0,0c0,0,0,0,0,0l-0.9,2.3l-2-0.7L30.3,19.5
		z M34.5,16.8c-0.1-0.2-0.2-0.4-0.4-0.6l1.6-6.3c0.1-0.5-0.2-0.9-0.6-1.1C34.6,8.7,34.1,9,34,9.4l-1.4,5.8c-0.6-0.1-1.2-0.1-1.8,0.2
		c-0.3,0.2-0.6,0.4-0.9,0.6V6.7c0-0.1,0-0.1,0.1-0.1h15.5c0.1,0,0.1,0,0.1,0.1v11.6c0,0.1,0,0.1-0.1,0.1H34.7
		C34.9,17.9,34.8,17.3,34.5,16.8L34.5,16.8z M22.2,31.9h27.4v9.9H22.2L22.2,31.9z M13.5,2.8h34.9c0.6,0,1.1,0.5,1.1,1.1v26.3H28
		v-1.8c0.3,0.1,0.7,0.2,1.1,0.2c0.3,0,0.6,0,0.9-0.1c0.8-0.3,1.5-0.9,1.8-1.7l2.4-6.5h11.4c1,0,1.8-0.8,1.8-1.8V6.7
		c0-1-0.8-1.8-1.8-1.8H30c-1,0-1.8,0.8-1.8,1.8v11.6c0,0.3,0.1,0.7,0.3,0.9l-0.7,2c0,0,0,0-0.1,0.1c0,0-0.1,0-0.1,0l-2.3-1.6
		c-0.3-0.2-0.6-0.4-1-0.6c1.1-0.9,1.8-2.2,1.8-3.7c0-2.6-2.1-4.8-4.8-4.8s-4.8,2.1-4.8,4.8c0,1.5,0.7,2.8,1.8,3.7
		c-0.3,0.2-0.6,0.3-0.9,0.6c0,0-0.1,0.1-0.1,0.1c-1.6,1.2-2.7,3.2-2.7,5.4v4.9h-2.1V3.8C12.5,3.2,12.9,2.8,13.5,2.8L13.5,2.8z
		 M2.8,9.6c0-1.7,1.3-3,3-3h4.9v2.1h-3c-1.6,0-2.8,1.3-2.8,2.8v30.2H2.8L2.8,9.6z M57.1,41.8V11.6c0-1.6-1.3-2.8-2.8-2.8h-3V6.6h4.9
		c1.7,0,3,1.3,3,3v32.1H57.1z"/>
	<path class="st0" d="M46.5,35.9H31.7c-0.4-1.1-1.4-1.9-2.7-1.9c-1.2,0-2.3,0.8-2.7,1.9h-1.2c-0.5,0-0.9,0.4-0.9,0.9
		s0.4,0.9,0.9,0.9h1.2c0.4,1.1,1.4,1.9,2.7,1.9c1.2,0,2.3-0.8,2.7-1.9h14.8c0.5,0,0.9-0.4,0.9-0.9C47.4,36.3,47,35.9,46.5,35.9
		L46.5,35.9z M29.1,37.9c-0.6,0-1.1-0.5-1.1-1.1c0-0.6,0.5-1.1,1.1-1.1s1.1,0.5,1.1,1.1C30.1,37.4,29.6,37.9,29.1,37.9z"/>
	<path class="st0" d="M16.9,35.9h-1c-0.5,0-0.9,0.4-0.9,0.9s0.4,0.9,0.9,0.9h1c0.5,0,0.9-0.4,0.9-0.9S17.4,35.9,16.9,35.9z"/>
</g>
</svg>
