<?xml version="1.0" encoding="utf-8"?>
<!-- Generator: Adobe Illustrator 19.2.1, SVG Export Plug-In . SVG Version: 6.00 Build 0)  -->
<svg version="1.1" id="Capa_1" xmlns="http://www.w3.org/2000/svg" xmlns:xlink="http://www.w3.org/1999/xlink" x="0px" y="0px"
	 viewBox="0 0 62 62" style="enable-background:new 0 0 62 62;" xml:space="preserve">
<style type="text/css">
	.st0{fill:#FFFFFF;}
</style>
<g>
	<path class="st0" d="M58.1,47.5H3.9c-0.3,0-0.5-0.1-0.7-0.3C3,47,2.9,46.7,2.9,46.5v-4.8h56.1v4.8c0,0.3-0.1,0.5-0.3,0.7
		C58.6,47.3,58.4,47.5,58.1,47.5z M37.5,55.2h-13l1.5-5.8h10.1L37.5,55.2z M45.2,57.7l0.7,1.4H16.1l0.7-1.4c0.1-0.2,0.2-0.3,0.4-0.4
		c0.2-0.1,0.3-0.1,0.5-0.1h26.6c0.2,0,0.4,0.1,0.5,0.1C45,57.4,45.1,57.5,45.2,57.7z M59.1,10.7v29H2.9v-29H59.1z M3.9,2.9h54.2
		c0.3,0,0.5,0.1,0.7,0.3c0.2,0.2,0.3,0.4,0.3,0.7v4.8H2.9V3.9c0-0.3,0.1-0.5,0.3-0.7C3.4,3,3.6,2.9,3.9,2.9z M58.1,1H3.9
		C3.1,1,2.4,1.3,1.9,1.9S1,3.1,1,3.9v42.6c0,0.8,0.3,1.5,0.9,2.1c0.5,0.5,1.3,0.9,2.1,0.9H24l-1.5,5.8h-4.8c-0.5,0-1.1,0.1-1.5,0.4
		c-0.5,0.3-0.8,0.7-1.1,1.2l-1.4,2.8c-0.1,0.1-0.1,0.3-0.1,0.5c0,0.2,0.1,0.3,0.1,0.5c0.1,0.1,0.2,0.3,0.4,0.3
		c0.1,0.1,0.3,0.1,0.5,0.1h32.9c0.2,0,0.3,0,0.5-0.1c0.1-0.1,0.3-0.2,0.4-0.3c0.1-0.1,0.1-0.3,0.1-0.5c0-0.2,0-0.3-0.1-0.5l-1.4-2.8
		c-0.2-0.5-0.6-0.9-1.1-1.2c-0.5-0.3-1-0.4-1.5-0.4h-4.8L38,49.4h20.1c0.8,0,1.5-0.3,2.1-0.9c0.5-0.5,0.9-1.3,0.9-2.1V3.9
		c0-0.8-0.3-1.5-0.9-2.1C59.6,1.3,58.9,1,58.1,1z"/>
	<rect x="29.4" y="4.2" class="st0" width="3.2" height="1.6"/>
	<rect x="35.1" y="4.2" class="st0" width="1.6" height="1.6"/>
	<rect x="25.3" y="4.2" class="st0" width="1.6" height="1.6"/>
	<rect x="6.7" y="43.2" class="st0" width="7.3" height="1.6"/>
	<rect x="16.4" y="43.2" class="st0" width="2.4" height="1.6"/>
	<path class="st0" d="M7,17.4h11.5v11.8H7V17.4z M41.6,13.5v11.4L41,24.3c-0.6-0.6-1.5-0.9-2.3-0.9c-0.9,0-1.7,0.3-2.3,0.9l-1.5,1.5
		L34,24.5c-0.4-0.6-1-1.1-1.6-1.5c-0.6-0.4-1.4-0.6-2.1-0.6c-0.7-0.1-1.5,0-2.2,0.3c-0.7,0.3-1.3,0.7-1.8,1.2l-5.8,5.9V13.5H41.6z
		 M55,17.4v11.8H43.5V17.4H55z M40.1,33.1l-4.1-5.7l1.7-1.7c0.3-0.3,0.6-0.4,1-0.4c0.4,0,0.7,0.1,1,0.4l1.9,2v5.5H40.1z M20.4,32.5
		l7.1-7.3c0.3-0.3,0.7-0.6,1.2-0.8c0.4-0.2,0.9-0.2,1.4-0.2c0.5,0,0.9,0.2,1.3,0.4s0.8,0.5,1,0.9l5.3,7.5H20.4V32.5z M6,31.1h12.5
		v2.9c0,0.3,0.1,0.5,0.3,0.7c0.2,0.2,0.4,0.3,0.7,0.3h23.1c0.3,0,0.5-0.1,0.7-0.3c0.2-0.2,0.3-0.4,0.3-0.7v-2.9H56
		c0.3,0,0.5-0.1,0.7-0.3c0.2-0.2,0.3-0.4,0.3-0.7V16.4c0-0.3-0.1-0.5-0.3-0.7c-0.2-0.2-0.4-0.3-0.7-0.3H43.5v-2.9
		c0-0.3-0.1-0.5-0.3-0.7c-0.2-0.2-0.4-0.3-0.7-0.3H19.5c-0.3,0-0.5,0.1-0.7,0.3c-0.2,0.2-0.3,0.4-0.3,0.7v2.9H6
		c-0.3,0-0.5,0.1-0.7,0.3c-0.2,0.2-0.3,0.4-0.3,0.7v13.7c0,0.3,0.1,0.5,0.3,0.7C5.5,31,5.8,31.1,6,31.1z"/>
	<path class="st0" d="M35.1,17.5c0.2,0,0.4,0.1,0.6,0.2c0.2,0.1,0.3,0.3,0.4,0.4c0.1,0.2,0.1,0.4,0.1,0.5c0,0.2-0.1,0.4-0.3,0.5
		c-0.2,0.1-0.3,0.2-0.6,0.3c-0.2,0-0.4,0-0.6-0.1c-0.2-0.1-0.4-0.2-0.5-0.3C34,18.8,34,18.6,34,18.4c0-0.3,0.1-0.5,0.3-0.7
		C34.5,17.6,34.8,17.5,35.1,17.5z M35.1,21.3c0.6,0,1.3-0.2,1.8-0.5c0.5-0.3,0.9-0.8,1.2-1.3c0.2-0.5,0.3-1.1,0.2-1.6
		c-0.1-0.6-0.4-1.1-0.9-1.5c-0.5-0.4-1-0.7-1.7-0.8c-0.6-0.1-1.3-0.1-1.9,0.2c-0.6,0.2-1.1,0.6-1.5,1c-0.4,0.5-0.5,1-0.5,1.6
		c0,0.8,0.3,1.5,0.9,2C33.4,21,34.2,21.3,35.1,21.3z"/>
	<path class="st0" d="M47.6,22l2.8,1.3l-2.8,1.3V22z M46.1,26.8c0.1,0.1,0.3,0.1,0.5,0.1c0.2,0,0.3,0,0.5-0.1l6.1-2.7
		c0.2-0.1,0.3-0.2,0.4-0.3c0.1-0.1,0.2-0.3,0.2-0.5c0-0.2-0.1-0.3-0.2-0.5c-0.1-0.1-0.2-0.3-0.4-0.3l-6.1-2.7
		c-0.2-0.1-0.3-0.1-0.5-0.1c-0.2,0-0.3,0.1-0.5,0.1c-0.1,0.1-0.3,0.2-0.4,0.3c-0.1,0.1-0.1,0.3-0.1,0.4V26c0,0.2,0,0.3,0.1,0.4
		C45.8,26.6,45.9,26.7,46.1,26.8z"/>
	<rect x="8.3" y="20.5" class="st0" width="8.1" height="2.4"/>
	<rect x="8.3" y="24.5" class="st0" width="8.1" height="1.6"/>
</g>
</svg>
