<?xml version="1.0" encoding="utf-8"?>
<!-- Generator: Adobe Illustrator 19.2.1, SVG Export Plug-In . SVG Version: 6.00 Build 0)  -->
<svg version="1.1" id="Capa_1" xmlns="http://www.w3.org/2000/svg" xmlns:xlink="http://www.w3.org/1999/xlink" x="0px" y="0px"
	 viewBox="0 0 62 62" style="enable-background:new 0 0 62 62;" xml:space="preserve">
<style type="text/css">
	.st0{fill:#FFFFFF;}
</style>
<path class="st0" d="M57.1,1H12.2c-2.1,0-3.9,1.7-3.9,3.9v8c0,0.5,0.4,0.9,0.9,0.9c0.5,0,0.9-0.4,0.9-0.9v-8c0-1.2,1-2.1,2.1-2.1
	h44.9c1.2,0,2.1,1,2.1,2.1v29.9c0,0.9-0.6,1.7-1.4,2c-0.4-0.7-1.2-1.2-2.1-1.2h-1c-0.6,0-1.1,0.2-1.5,0.5c-0.4-0.3-0.9-0.5-1.5-0.5
	h-1c-0.6,0-1.1,0.2-1.5,0.5c-0.4-0.3-0.9-0.5-1.5-0.5h-1c-0.2,0-0.4,0-0.6,0.1v-0.9h9.9c0.6,0,1-0.5,1-1.1V6.1c0-0.6-0.5-1.1-1-1.1
	H14.7c-0.6,0-1,0.5-1,1.1v26.2l-3.3,3.6c-0.2-0.3-0.3-0.6-0.3-1V16.5c0-0.5-0.4-0.9-0.9-0.9c-0.5,0-0.9,0.4-0.9,0.9v5.7l-6,9.3
	c-1.9,2.9-1.8,6.6,0.1,9.4l3.8,5.6c0.5,0.8,0.8,1.7,0.9,2.7l0.2,6.3c0,0.5,0.4,0.8,0.9,0.8c0,0,0,0,0,0c0.5,0,0.9-0.4,0.8-0.9
	L8.9,49c0-1.3-0.5-2.5-1.2-3.6l-3.8-5.6c-1.5-2.3-1.6-5.2-0.1-7.5l4.5-7v9.4c0,0.8,0.3,1.7,0.8,2.3l-0.6,0.6
	c-0.3,0.4-0.3,0.9,0.1,1.2c0.4,0.3,0.9,0.3,1.2-0.1l9.2-10c0.5-0.5,1.2-0.5,1.7,0c0.4,0.4,0.5,1,0.2,1.4l-5.6,10
	c-0.4,0.7-0.3,1.5,0.2,2.2c1.1,1.3,1.4,3.2,0.9,4.8c-0.3,0.8-0.4,1.6-0.4,2.4l-0.1,4.6c0,0.5,0.4,0.9,0.9,0.9c0,0,0,0,0,0
	c0.5,0,0.9-0.4,0.9-0.9l0.1-4.6c0-0.6,0.1-1.3,0.3-1.9c0.8-2.2,0.3-4.7-1.2-6.5c0-0.1-0.1-0.1,0-0.2l1.4-2.5h21.9v4.2l-2.8-1.4
	c-1.1-0.5-2.4-0.3-3.2,0.7c-1.1,1.2-1,3,0,4.2l5.3,5.7c0.4,0.5,0.7,1.2,0.7,1.9v6.2c0,0.5,0.4,0.9,0.9,0.9c0.5,0,0.9-0.4,0.9-0.9
	v-6.2c0-1.2-0.4-2.2-1.2-3.1l-5.3-5.7c-0.5-0.5-0.5-1.3,0-1.8c0.3-0.3,0.7-0.4,1.1-0.3l4.1,2c0.6,0.3,1.3-0.1,1.3-0.8v-15
	c0-0.7,0.5-1.3,1.1-1.3c0.6,0,1.1,0.6,1.1,1.3v15c0,0.5,0.4,0.9,0.9,0.9c0.5,0,0.9-0.4,0.9-0.9v-6.5c0-0.3,0.3-0.5,0.6-0.5h1
	c0.3,0,0.6,0.2,0.6,0.5v6.5c0,0.5,0.4,0.9,0.9,0.9c0.5,0,0.9-0.4,0.9-0.9v-6.5c0-0.3,0.3-0.5,0.6-0.5h1c0.3,0,0.6,0.2,0.6,0.5v6.5
	c0,0.5,0.4,0.9,0.9,0.9c0.5,0,0.9-0.4,0.9-0.9v-6.5c0-0.3,0.3-0.5,0.6-0.5h1c0.3,0,0.6,0.2,0.6,0.5v6.5c0,0.1,0,0.2,0,0.3l0.8,2.4
	c0.2,0.6,0.3,1.2,0.2,1.8c0,0.5,0.3,0.9,0.8,0.9c0,0,0,0,0.1,0c0.5,0,0.8-0.3,0.9-0.8c0.1-0.8,0-1.7-0.3-2.5l-0.8-2.3v-5.6
	c1.7-0.4,2.9-2,2.9-3.8V4.9C61,2.7,59.3,1,57.1,1L57.1,1z M19.3,36.9l1.2-2.3h19.7v2.3H19.3z M43.1,26.1c-1.5,0-2.8,1.3-2.9,2.9
	h-2.8c-0.3,0-0.6-0.3-0.6-0.6v-3.8c0-0.3,0.3-0.6,0.6-0.6h4c0.5,0,0.9-0.4,0.9-0.9c0-0.5-0.4-0.9-0.9-0.9h-4c-1.3,0-2.4,1.1-2.4,2.4
	v3.8c0,1.3,1.1,2.4,2.4,2.4h2.8v2.1H21.5l1-1.7c0.6-1.2,0.4-2.6-0.5-3.5c-1.2-1.2-3.1-1.1-4.2,0.1l-2.4,2.6V6.8h39.8v26.2H46v-2.1
	h3.2c1.3,0,2.4-1.1,2.4-2.4v-3.8c0-1.3-1.1-2.4-2.4-2.4h-4.3c-0.5,0-0.9,0.4-0.9,0.9c0,0.5,0.4,0.9,0.9,0.9h4.3
	c0.3,0,0.6,0.3,0.6,0.6v3.8c0,0.3-0.3,0.6-0.6,0.6H46C45.9,27.4,44.7,26.1,43.1,26.1L43.1,26.1z M12.8,20.6v-1.4
	c0-0.5-0.4-0.9-0.9-0.9c-0.5,0-0.9,0.4-0.9,0.9v1.4c0,0.5,0.4,0.9,0.9,0.9C12.4,21.4,12.8,21,12.8,20.6L12.8,20.6z M57.4,51.4
	c-0.4-0.3-1-0.1-1.2,0.3l-1.1,1.7c-0.5,0.8-0.7,1.7-0.7,2.6v4.1c0,0.5,0.4,0.9,0.9,0.9c0.5,0,0.9-0.4,0.9-0.9V56
	c0-0.6,0.2-1.2,0.5-1.7l1.1-1.7C57.9,52.2,57.8,51.7,57.4,51.4L57.4,51.4z M36.8,13.4l-9.3-5.1c-0.3-0.2-0.7-0.2-1.1,0l-9.3,5.1
	c-0.3,0.2-0.6,0.6-0.6,1c0,0.4,0.2,0.8,0.6,1l2.9,1.6V23c0,0.7,0.4,1.4,1.1,1.7c3.9,1.6,7.8,1.6,11.7,0c0.7-0.3,1.1-0.9,1.1-1.7
	v-6.1l2.9-1.6c0.3-0.2,0.6-0.6,0.6-1C37.4,14,37.2,13.6,36.8,13.4L36.8,13.4z M32.2,23C32.2,23,32.2,23.1,32.2,23
	c-3.5,1.5-6.9,1.5-10.4,0.1c0,0,0,0,0-0.1v-5.1l4.7,2.6c0.2,0.1,0.3,0.1,0.5,0.1c0.2,0,0.4,0,0.5-0.1l2.2-1.2v1.9
	c0,0.5,0.4,0.9,0.9,0.9c0.5,0,0.9-0.4,0.9-0.9v-2.9l0.7-0.4L32.2,23L32.2,23z M30.7,16.7l-3.1-3c-0.4-0.3-0.9-0.3-1.2,0
	c-0.3,0.4-0.3,0.9,0,1.2l2.7,2.6L27,18.7c-2.2-1.2-5.5-3-7.9-4.4L27,10l7.9,4.4C33.9,14.9,31.7,16.1,30.7,16.7L30.7,16.7z
	 M40.6,14.4h6.6c0.5,0,0.9-0.4,0.9-0.9c0-0.5-0.4-0.9-0.9-0.9h-6.6c-0.5,0-0.9,0.4-0.9,0.9C39.7,14,40.1,14.4,40.6,14.4L40.6,14.4z
	 M52.7,17.6c0-0.5-0.4-0.9-0.9-0.9H40.6c-0.5,0-0.9,0.4-0.9,0.9c0,0.5,0.4,0.9,0.9,0.9h11.3C52.3,18.4,52.7,18,52.7,17.6L52.7,17.6z
	"/>
</svg>
