<?xml version="1.0" encoding="utf-8"?>
<!-- Generator: Adobe Illustrator 19.2.1, SVG Export Plug-In . SVG Version: 6.00 Build 0)  -->
<svg version="1.1" id="Capa_1" xmlns="http://www.w3.org/2000/svg" xmlns:xlink="http://www.w3.org/1999/xlink" x="0px" y="0px"
	 viewBox="0 0 36 36" style="enable-background:new 0 0 36 36;" xml:space="preserve">
<g>
	<path d="M2,6.1c0-1.3,1.1-2.4,2.4-2.4v-2C2,1.7,0,3.7,0,6.1H2z M2,23.1v-17H0v17H2z M4.4,25.5c-1.3,0-2.4-1.1-2.4-2.4H0
		c0,2.4,2,4.4,4.4,4.4V25.5z M31.6,25.5H4.4v2h27.2V25.5z M34,23.1c0,1.3-1.1,2.4-2.4,2.4v2c2.4,0,4.4-2,4.4-4.4H34z M34,6.1v17h2
		v-17H34z M31.6,3.7c1.3,0,2.4,1.1,2.4,2.4h2c0-2.4-2-4.4-4.4-4.4V3.7z M4.4,3.7h27.2v-2H4.4V3.7z"/>
	<path d="M11.2,34.3h13.6v-2H11.2V34.3z M24.8,34.3c0.6,0,1-0.5,1-1c0-0.6-0.5-1-1-1V34.3z M11.2,32.3c-0.6,0-1,0.5-1,1
		c0,0.6,0.5,1,1,1V32.3z"/>
	<path d="M17,26.5v6.8h2v-6.8H17z M17,33.3c0,0.6,0.5,1,1,1c0.6,0,1-0.5,1-1H17z M19,26.5c0-0.6-0.5-1-1-1c-0.6,0-1,0.5-1,1H19z"/>
</g>
</svg>
