<?xml version="1.0" encoding="utf-8"?>
<!-- Generator: Adobe Illustrator 19.2.1, SVG Export Plug-In . SVG Version: 6.00 Build 0)  -->
<svg version="1.1" id="Capa_1" xmlns="http://www.w3.org/2000/svg" xmlns:xlink="http://www.w3.org/1999/xlink" x="0px" y="0px"
	 viewBox="0 0 50 50" style="enable-background:new 0 0 50 50;" xml:space="preserve">
<style type="text/css">
	.st0{fill:#E99607;}
</style>
<g>
	<g>
		<path class="st0" d="M24.6,26.8c-0.2,0-0.3,0-0.5-0.1L2,19.5c-0.6-0.2-1-0.8-1-1.4s0.4-1.2,1-1.4l22.1-7.2c0.3-0.1,0.6-0.1,0.9,0
			L48,16.6c0.6,0.2,1,0.8,1,1.4c0,0.6-0.4,1.2-1,1.4l-22.9,7.3C24.9,26.8,24.8,26.8,24.6,26.8z M7.3,18.1l17.3,5.6l17.9-5.7
			l-17.9-5.6L7.3,18.1z"/>
	</g>
	<g>
		<path class="st0" d="M39,21.8c-0.1,0-0.2,0-0.2,0l-14-2.2c-0.8-0.1-1.4-0.9-1.2-1.7c0.1-0.8,0.9-1.4,1.7-1.2l14,2.2
			c0.8,0.1,1.4,0.9,1.2,1.7C40.3,21.3,39.7,21.8,39,21.8z"/>
	</g>
	<g>
		<path class="st0" d="M43,41h-5c-0.3,0-0.6-0.6-0.8-0.9C37,39.9,37,39.3,37.1,39l2.6-9.5c0.1-0.4,0.5-0.8,1-0.8
			c0.4,0,0.8,0.3,0.9,0.7l2.4,9.3c0.1,0.3,0,1.1-0.2,1.3C43.6,40.4,43.3,41,43,41z M39.3,39h2.4l-1.1-4.5L39.3,39z"/>
	</g>
	<g>
		<path class="st0" d="M40,26.1c-0.5,0-1-0.4-1-1v-4c0-0.5,0.5-1,1-1s1,0.4,1,1v4C41,25.7,40.5,26.1,40,26.1z"/>
	</g>
	<g>
		<path class="st0" d="M40,31c-1.9,0-3.5-1.6-3.5-3.5s1.6-3.5,3.5-3.5s3.5,1.6,3.5,3.5S41.9,31,40,31z M40,26.1
			c-0.8,0-1.5,0.7-1.5,1.5c0,0.8,0.7,1.5,1.5,1.5s1.5-0.7,1.5-1.5C41.5,26.7,40.8,26.1,40,26.1z"/>
	</g>
	<g>
		<path class="st0" d="M25,35.3c-8.4,0-15.9-4.8-16.2-5C8.4,30.1,8,29.6,8,29.1v-7.9c0-0.8,0.7-1.5,1.5-1.5s1.5,0.7,1.5,1.5v7.1
			c2,1.1,7.7,4.1,13.9,4.1c3,0,6.2-0.7,9.5-2c0.8-0.3,1.7,0.1,2,0.8c0.3,0.8,0,1.6-0.8,1.9C31.9,34.6,28.3,35.3,25,35.3z"/>
	</g>
</g>
</svg>
