<?xml version="1.0" encoding="utf-8"?>
<!-- Generator: Adobe Illustrator 19.2.1, SVG Export Plug-In . SVG Version: 6.00 Build 0)  -->
<svg version="1.1" id="Capa_1" xmlns="http://www.w3.org/2000/svg" xmlns:xlink="http://www.w3.org/1999/xlink" x="0px" y="0px"
	 viewBox="0 0 36 36" style="enable-background:new 0 0 36 36;" xml:space="preserve">
<g>
	<path d="M30.8,33.5v-8.6h-2v8.6H30.8z M30.8,24.9c0-0.6-0.4-1-1-1c-0.6,0-1,0.4-1,1H30.8z M28.8,33.5c0,0.6,0.4,1,1,1
		c0.6,0,1-0.4,1-1H28.8z"/>
	<path d="M7.2,33.5V21.4h-2v12.1H7.2z M7.2,21.4c0-0.6-0.4-1-1-1c-0.6,0-1,0.4-1,1H7.2z M5.2,33.5c0,0.6,0.4,1,1,1c0.6,0,1-0.4,1-1
		H5.2z"/>
	<path d="M7.2,14.6V2.5h-2v12.1H7.2z M7.2,2.5c0-0.6-0.4-1-1-1c-0.6,0-1,0.4-1,1H7.2z M5.2,14.6c0,0.6,0.4,1,1,1c0.6,0,1-0.4,1-1
		H5.2z"/>
	<path d="M18.9,33.5V18h-2v15.5H18.9z M18.9,18c0-0.6-0.4-1-1-1c-0.6,0-1,0.4-1,1H18.9z M16.9,33.5c0,0.6,0.4,1,1,1c0.6,0,1-0.4,1-1
		H16.9z"/>
	<path d="M18.9,11.1V2.5h-2v8.6H18.9z M18.9,2.5c0-0.6-0.4-1-1-1c-0.6,0-1,0.4-1,1H18.9z M16.9,11.1c0,0.6,0.4,1,1,1
		c0.6,0,1-0.4,1-1H16.9z"/>
	<path d="M30.8,18V2.5h-2V18H30.8z M30.8,2.5c0-0.6-0.4-1-1-1c-0.6,0-1,0.4-1,1H30.8z M28.8,18c0,0.6,0.4,1,1,1c0.6,0,1-0.4,1-1
		H28.8z"/>
	<path d="M1,22.4h10.3v-2H1V22.4z M11.3,22.4c0.6,0,1-0.4,1-1c0-0.6-0.4-1-1-1V22.4z M1,20.4c-0.6,0-1,0.4-1,1c0,0.6,0.4,1,1,1V20.4
		z"/>
	<path d="M12.8,12.1h10.3v-2H12.8V12.1z M23.1,12.1c0.6,0,1-0.4,1-1c0-0.6-0.4-1-1-1V12.1z M12.8,10.1c-0.6,0-1,0.4-1,1
		c0,0.6,0.4,1,1,1V10.1z"/>
	<path d="M24.6,25.9h10.3v-2H24.6V25.9z M34.9,25.9c0.6,0,1-0.4,1-1c0-0.6-0.4-1-1-1V25.9z M24.6,23.9c-0.6,0-1,0.4-1,1
		c0,0.6,0.4,1,1,1V23.9z"/>
</g>
</svg>
