<?xml version="1.0" encoding="utf-8"?>
<!-- Generator: Adobe Illustrator 19.2.1, SVG Export Plug-In . SVG Version: 6.00 Build 0)  -->
<svg version="1.1" id="Capa_1" xmlns="http://www.w3.org/2000/svg" xmlns:xlink="http://www.w3.org/1999/xlink" x="0px" y="0px"
	 viewBox="0 0 36 36" style="enable-background:new 0 0 36 36;" xml:space="preserve">
<g>
	<path d="M34.9,8.8L18.5,0.6l-0.9,1.9L34,10.7L34.9,8.8z M18.5,18.9l16.4-8.2L34,8.8l-16.4,8.2L18.5,18.9z M1.1,10.7l16.4,8.2
		l0.9-1.9L2,8.8L1.1,10.7z M17.5,0.6L1.1,8.8L2,10.7l16.4-8.2L17.5,0.6z M34.4,9.8l0.5,0.9c0.4-0.2,0.6-0.5,0.6-0.9
		c0-0.4-0.2-0.8-0.6-0.9L34.4,9.8z M18,18l-0.5,0.9c0.3,0.1,0.7,0.1,0.9,0L18,18z M1.6,9.8L1.1,8.8C0.7,9,0.5,9.4,0.5,9.8
		c0,0.4,0.2,0.8,0.6,0.9L1.6,9.8z M18,1.6l0.5-0.9c-0.3-0.1-0.7-0.1-0.9,0L18,1.6z"/>
	<path d="M18.5,35.4l16.4-8.2L34,25.3l-16.4,8.2L18.5,35.4z M1.1,27.2l16.4,8.2l0.9-1.9L2,25.3L1.1,27.2z M34.9,27.2
		c0.5-0.3,0.7-0.9,0.5-1.4c-0.3-0.5-0.9-0.7-1.4-0.5L34.9,27.2z M18,34.4l-0.5,0.9c0.3,0.1,0.7,0.1,0.9,0L18,34.4z M2,25.3
		c-0.5-0.3-1.2,0-1.4,0.5c-0.3,0.5,0,1.2,0.5,1.4L2,25.3z"/>
	<path d="M18.5,27.2l16.4-8.2L34,17.1l-16.4,8.2L18.5,27.2z M1.1,18.9l16.4,8.2l0.9-1.9L2,17.1L1.1,18.9z M34.9,18.9
		c0.5-0.3,0.7-0.9,0.5-1.4c-0.3-0.5-0.9-0.7-1.4-0.5L34.9,18.9z M18,26.2l-0.5,0.9c0.3,0.1,0.7,0.1,0.9,0L18,26.2z M2,17.1
		c-0.5-0.3-1.2,0-1.4,0.5c-0.3,0.5,0,1.2,0.5,1.4L2,17.1z"/>
</g>
</svg>
