<?xml version="1.0" encoding="utf-8"?>
<!-- Generator: Adobe Illustrator 19.2.1, SVG Export Plug-In . SVG Version: 6.00 Build 0)  -->
<svg version="1.1" id="Capa_1" xmlns="http://www.w3.org/2000/svg" xmlns:xlink="http://www.w3.org/1999/xlink" x="0px" y="0px"
	 viewBox="0 0 50 50" style="enable-background:new 0 0 50 50;" xml:space="preserve">
<style type="text/css">
	.st0{fill:#E99607;}
</style>
<g>
	<g>
		<path class="st0" d="M19.4,49c-0.2,0-0.4,0-0.6-0.1l-5.2-2.1c-0.6-0.3-1.1-0.7-1.4-1.3c-0.3-0.6-0.3-1.3,0-1.9
			c0,0,0.9-2.3-0.2-3.9c-1-1.4-3.3-2-6.9-1.8c-0.6,0-1.2-0.3-1.5-0.9l-1.9-4.4c-0.5-1.2,0-2.7,1.1-3.3c0,0,2.5-1.4,2.6-3.5
			c0.1-1.6-1.2-3.5-3.7-5.5c-0.5-0.4-0.7-1.1-0.5-1.7l2-4.9h0c0.5-1.3,1.9-1.9,3.2-1.5c0.9,0.3,3.5,0.7,5-0.5c1.5-1.3,1.3-4.1,1-6.3
			c-0.1-0.7,0.2-1.3,0.8-1.6l4.1-2.1C18.5,1,20,1.4,20.7,2.4c0,0,2.2,2.9,4.8,2.9c1.6,0,3.2-1.3,4.8-3.6c0.4-0.6,1.1-0.8,1.8-0.6
			l4.1,1.6c1.2,0.5,1.9,1.8,1.7,3c0,0-0.6,3.4,1.3,5.2c1.2,1.2,3.4,1.6,6.3,1c0.7-0.1,1.4,0.2,1.6,0.9l1.7,3.8
			c0.5,1.2,0.1,2.6-0.9,3.3c0,0-2.4,1.8-2.5,4.4c0,1.8,1.1,3.7,3.4,5.5c0.5,0.4,0.7,1.1,0.4,1.7l-1.7,4.2c-0.5,1.2-1.8,1.9-3,1.6
			c0,0-3.5-0.7-5.3,1.2c-1.2,1.2-1.5,3.3-1,6.2c0.1,0.7-0.2,1.4-0.9,1.6l-4.6,1.9c-1.2,0.5-2.6,0.1-3.3-1c0,0-1.8-2.6-4.1-2.6
			c-1.5,0-3,1.2-4.5,3.4C20.4,48.8,19.9,49,19.4,49z M15.2,44.2l3.7,1.5c1.9-2.5,4.1-3.7,6.3-3.7c3.4,0,5.8,2.9,6.4,3.7l3.3-1.4
			c-0.4-3.4,0.3-6,2.1-7.7c2.6-2.6,6.7-2.2,7.8-2l1.2-3c-2.5-2.3-3.7-4.7-3.6-7.2c0.1-3.6,2.9-6,3.6-6.5l-1.1-2.6
			c-3.4,0.4-6.1-0.3-7.8-2.1c-2.6-2.6-2.3-6.7-2.1-7.7l-2.8-1.1c-1.9,2.6-4.1,3.9-6.5,4c-3.7,0.1-6.5-3-7.1-3.9l-2.9,1.5
			c0.4,3.7-0.3,6.4-2.1,8C10.9,16,7.2,15.3,6,15l-1.4,3.5c2.8,2.4,4.2,4.9,4,7.4c-0.2,3.2-2.9,5.1-3.9,5.7l1.4,3.2
			c4.1-0.1,6.9,1,8.4,3.1C16.2,40.2,15.6,43.1,15.2,44.2z M6.1,14.7C6.1,14.7,6.1,14.7,6.1,14.7L6.1,14.7
			C6.1,14.7,6.1,14.7,6.1,14.7z M4.7,14L4.7,14L4.7,14z"/>
	</g>
	<g>
		<path class="st0" d="M25,32.9c-4.4,0-7.9-3.5-7.9-7.9s3.5-7.9,7.9-7.9s7.9,3.5,7.9,7.9S29.4,32.9,25,32.9z M25,20.1
			c-2.7,0-4.9,2.2-4.9,4.9s2.2,4.9,4.9,4.9s4.9-2.2,4.9-4.9S27.7,20.1,25,20.1z"/>
	</g>
</g>
</svg>
