<?xml version="1.0" encoding="utf-8"?>
<!-- Generator: Adobe Illustrator 19.2.1, SVG Export Plug-In . SVG Version: 6.00 Build 0)  -->
<svg version="1.1" id="Capa_1" xmlns="http://www.w3.org/2000/svg" xmlns:xlink="http://www.w3.org/1999/xlink" x="0px" y="0px"
	 viewBox="0 0 50 50" style="enable-background:new 0 0 50 50;" xml:space="preserve">
<style type="text/css">
	.st0{fill:#E99607;}
</style>
<g>
	<g>
		<path class="st0" d="M25.9,35.1c-0.3,0-0.5-0.1-0.8-0.2C17.4,30.1,15.1,24.6,15,24.4c-0.1-0.3-0.1-0.7,0-1
			C22.3-1.3,47.1,1,47.4,1.1c0.7,0.1,1.3,0.7,1.3,1.4c1.8,27.8-22.2,32.6-22.5,32.7C26.1,35.1,26,35.1,25.9,35.1z M17.9,23.7
			c0.7,1.3,3,5,8.3,8.4c3.4-0.8,20.4-6.1,19.6-28.2C41,3.8,23.9,4.7,17.9,23.7z M16.3,25L16.3,25L16.3,25z"/>
	</g>
	<g>
		<path class="st0" d="M33.5,23.1c-3.5,0-6.3-2.8-6.3-6.3s2.8-6.3,6.3-6.3s6.3,2.8,6.3,6.3S36.9,23.1,33.5,23.1z M33.5,13.5
			c-1.8,0-3.3,1.5-3.3,3.3c0,1.8,1.5,3.3,3.3,3.3c1.8,0,3.3-1.5,3.3-3.3C36.8,15,35.3,13.5,33.5,13.5z"/>
	</g>
	<g>
		<path class="st0" d="M4.7,29.9c-0.4,0-0.7-0.1-1-0.4c-0.5-0.5-0.6-1.3-0.3-1.9C9,18.7,13.9,13.9,18,13.1c2-0.4,3.1,0.4,3.4,0.6
			L19.6,16c0,0,0,0,0.1,0.1c0,0-3.3-1.4-10.1,7.9c2.1-0.9,4.5-1.6,6.8-1.5c0.8,0,1.4,0.7,1.4,1.5c0,0.8-0.7,1.4-1.5,1.4
			c-4.8-0.2-10.5,4.2-10.6,4.3C5.4,29.8,5.1,29.9,4.7,29.9z"/>
	</g>
	<g>
		<path class="st0" d="M21.8,46.8c-0.4,0-0.9-0.2-1.2-0.6c-0.4-0.6-0.4-1.4,0.1-1.9c4.2-4.6,3.8-10.5,3.7-10.6
			c-0.1-0.8,0.5-1.5,1.3-1.6c0.8-0.1,1.5,0.5,1.6,1.3c0,0.2,0.3,3.5-1.2,7.3C30.1,38,34,34,33.4,30.1c-0.1-0.8,0.4-1.6,1.2-1.7
			c0.8-0.1,1.6,0.4,1.7,1.2c1.5,9.2-13.2,16.7-13.8,17C22.3,46.8,22,46.8,21.8,46.8z"/>
	</g>
	<g>
		<path class="st0" d="M2.7,49c-0.4,0-0.7-0.1-1-0.4c-0.4-0.4-0.5-0.9-0.4-1.5c0.1-0.4,2.8-9.5,6.9-13.7c0.1-0.1,0.1-0.1,0.2-0.2
			c1.5-1.1,5.1-2.5,8.1,0.1c3.1,2.7,1.1,6.9-0.4,8.7c-2.4,3.4-11.9,6.5-13,6.8C3,49,2.8,49,2.7,49z M10.2,35.6
			C7.9,38,6.1,42.3,5,45.2c3.5-1.3,7.7-3.2,8.7-4.8c0,0,0.1-0.1,0.1-0.1c0,0,2.5-3.1,0.8-4.7C12.7,34,10.6,35.3,10.2,35.6z"/>
	</g>
</g>
</svg>
