<?xml version="1.0" encoding="utf-8"?>
<!-- Generator: Adobe Illustrator 19.2.1, SVG Export Plug-In . SVG Version: 6.00 Build 0)  -->
<svg version="1.1" id="Capa_1" xmlns="http://www.w3.org/2000/svg" xmlns:xlink="http://www.w3.org/1999/xlink" x="0px" y="0px"
	 viewBox="0 0 17 17" style="enable-background:new 0 0 17 17;" xml:space="preserve">
<style type="text/css">
	.st0{fill-rule:evenodd;clip-rule:evenodd;fill:#FFFFFF;}
	.st1{opacity:0.3;fill-rule:evenodd;clip-rule:evenodd;fill:#FFFFFF;}
</style>
<g>
	<path class="st0" d="M17,15.3l0-5.4c0-0.6-0.5-1-1-1l-6.1,0c-0.6,0-1,0.5-1,1l0,5.4c0,0.6,0.5,1,1,1l6.1,0
		C16.5,16.3,17,15.9,17,15.3z M0.1,15.7l2.2-2.2c0.4-0.4,1-0.4,1.4,0l0.6,0.6l0.7-0.7c0.4-0.4,1-0.4,1.4,0l1.6,1.6l0-5.3
		c0-0.6-0.5-1-1-1L1,8.8c-0.6,0-1,0.5-1,1l0,5.4C0,15.5,0,15.6,0.1,15.7L0.1,15.7z M14.8,12.9c0.1-0.1,0.2-0.2,0.2-0.3
		c0-0.1-0.1-0.2-0.2-0.3l-2.7-1.7c-0.1-0.1-0.2-0.1-0.3,0s-0.2,0.2-0.2,0.3l0,3.4c0,0.1,0.1,0.2,0.2,0.3c0.1,0.1,0.2,0.1,0.3,0
		L14.8,12.9z M3.1,12.6c0.8,0,1.4-0.6,1.4-1.4c0-0.8-0.6-1.4-1.4-1.4c-0.8,0-1.4,0.6-1.4,1.4C1.7,12,2.3,12.6,3.1,12.6z M9.2,8.2
		l0-2.4c0-0.6,0.5-1,1-1l2.4,0l0-3.1c0-0.6-0.5-1-1-1l-6.1,0c-0.6,0-1,0.5-1,1l0,5.4c0,0.6,0.5,1,1,1L9.2,8.2z M6.1,5.4l2,0
		c0.2,0,0.3-0.2,0.3-0.3c0-0.2-0.2-0.3-0.3-0.3l-2,0c-0.2,0-0.3,0.2-0.3,0.3C5.8,5.3,5.9,5.4,6.1,5.4z M6.1,4.1l4.8,0
		c0.2,0,0.3-0.2,0.3-0.3c0-0.2-0.2-0.3-0.3-0.3l-4.8,0c-0.2,0-0.3,0.2-0.3,0.3C5.8,3.9,5.9,4.1,6.1,4.1z M6.1,2.7l4.8,0
		c0.2,0,0.3-0.2,0.3-0.3c0-0.2-0.2-0.3-0.3-0.3L6.1,2C5.9,2,5.8,2.2,5.8,2.4C5.8,2.6,5.9,2.7,6.1,2.7z"/>
	<path class="st1" d="M4.9,14.6l1.7,1.7h0.5c0.3,0,0.6-0.2,0.8-0.4L6,14c-0.1-0.1-0.3-0.1-0.5,0L4.9,14.6z"/>
	<path class="st1" d="M0.6,16.2c0.1,0.1,0.3,0.1,0.4,0.1h4.6L3.3,14c-0.1-0.1-0.3-0.1-0.5,0L0.6,16.2z"/>
	<path class="st1" d="M12.4,5.4l-2.2,0c-0.2,0-0.3,0.2-0.3,0.3l0,2.2L12.4,5.4z"/>
</g>
</svg>
