<?xml version="1.0" encoding="utf-8"?>
<!-- Generator: Adobe Illustrator 19.2.1, SVG Export Plug-In . SVG Version: 6.00 Build 0)  -->
<svg version="1.1" id="Capa_1" xmlns="http://www.w3.org/2000/svg" xmlns:xlink="http://www.w3.org/1999/xlink" x="0px" y="0px"
	 viewBox="0 0 17 17" style="enable-background:new 0 0 17 17;" xml:space="preserve">
<style type="text/css">
	.st0{fill:#FFFFFF;}
	.st1{opacity:0.3;fill:#FFFFFF;}
</style>
<g>
	<path class="st0" d="M13.4,6.5l0-5.4c0-0.6-0.5-1.2-1.2-1.2L2.9,0C2.2,0,1.7,0.5,1.7,1.2l0,12.3c0,0.6,0.5,1.2,1.2,1.2l6,0
		c0-2.3,0-2.1,0-2.2C7.1,9.3,10,5.6,13.4,6.5z M4.9,2.7l4.5,0c0.3,0,0.5,0.2,0.5,0.5S9.7,3.7,9.4,3.7l-4.5,0c-0.3,0-0.5-0.2-0.5-0.5
		C4.4,2.9,4.6,2.7,4.9,2.7z M7.6,8L4.9,8C4.6,8,4.4,7.7,4.4,7.4c0-0.3,0.2-0.5,0.5-0.5l2.7,0c0.3,0,0.5,0.2,0.5,0.5
		C8.1,7.7,7.9,8,7.6,8z M4.9,5.8c-0.3,0-0.5-0.2-0.5-0.5c0-0.3,0.2-0.5,0.5-0.5l4.5,0C9.7,4.8,10,5,10,5.3c0,0.3-0.2,0.5-0.5,0.5
		L4.9,5.8z"/>
	<path class="st1" d="M12.4,7.4c-1.6,0-2.9,1.3-2.9,2.9c0,1.6,1.3,2.9,2.9,2.9c1.6,0,2.9-1.3,2.9-2.9C15.3,8.7,14,7.4,12.4,7.4z
		 M13.6,9.9c-0.8,1.3-0.6,0.9-1.1,1.6c-0.2,0.2-0.5,0.3-0.7,0.1L11,11.1c-0.2-0.2-0.3-0.5-0.1-0.7c0.2-0.2,0.5-0.3,0.7-0.1l0.4,0.2
		c0.8-1.3,0.8-1.2,0.9-1.3C13.4,8.9,13.9,9.4,13.6,9.9z"/>
	<path class="st1" d="M10,13.5l0,2.9c0,0.4,0.4,0.7,0.8,0.5l1.6-0.9l1.6,0.9c0.4,0.2,0.8-0.1,0.8-0.5l0-2.9
		C13.3,14.6,11.4,14.6,10,13.5z"/>
</g>
</svg>
