<?xml version="1.0" encoding="utf-8"?>
<!-- Generator: Adobe Illustrator 24.0.2, SVG Export Plug-In . SVG Version: 6.00 Build 0)  -->
<svg version="1.1" id="Capa_1" xmlns="http://www.w3.org/2000/svg" xmlns:xlink="http://www.w3.org/1999/xlink" x="0px" y="0px"
	 viewBox="0 0 20 20" style="enable-background:new 0 0 20 20;" xml:space="preserve">
<style type="text/css">
	.st0{fill:#FFFFFF;}
</style>
<path class="st0" d="M18,3.1H2C1,3.1,0.1,3.9,0.1,5V15c0,1,0.8,1.9,1.9,1.9H18c1,0,1.9-0.8,1.9-1.9V5C19.9,3.9,19,3.1,18,3.1z
	 M17.9,4.3c-3.2,3.9-6.9,7.8-7.9,7.8S5.2,8.3,2.1,4.3H17.9z M18,15.7H2c-0.3,0-0.6-0.3-0.6-0.6V5.5C3.7,8.3,8,13.4,10,13.4
	s6.3-5.1,8.6-7.9V15C18.6,15.4,18.3,15.7,18,15.7z"/>
<g>
</g>
<g>
</g>
<g>
</g>
<g>
</g>
<g>
</g>
<g>
</g>
<g>
</g>
<g>
</g>
<g>
</g>
<g>
</g>
<g>
</g>
<g>
</g>
<g>
</g>
<g>
</g>
<g>
</g>
</svg>
