<?xml version="1.0" encoding="utf-8"?>
<!-- Generator: Adobe Illustrator 19.2.1, SVG Export Plug-In . SVG Version: 6.00 Build 0)  -->
<svg version="1.1" id="Capa_1" xmlns="http://www.w3.org/2000/svg" xmlns:xlink="http://www.w3.org/1999/xlink" x="0px" y="0px"
	 viewBox="0 0 25 25" style="enable-background:new 0 0 25 25;" xml:space="preserve">
<style type="text/css">
	.st0{fill:#7DAD46;}
	.st1{opacity:0.3;fill:#7DAD46;}
</style>
<g>
	<path id="XMLID_00000067205535456672787010000011528501044231084674_" class="st0" d="M19.1,13.2c-0.8,0-1.5,0.7-1.5,1.5
		c0-0.8-0.7-1.5-1.5-1.5c-0.8,0-1.5,0.7-1.5,1.5c0-0.8-0.7-1.5-1.5-1.5s-1.5,0.7-1.5,1.5V8.1c0-0.8-0.7-1.5-1.5-1.5S8.8,7.3,8.8,8.1
		v5.1v3.7H8.7l-1.4-1.8c-0.4-0.6-1.2-0.8-1.9-0.3c-0.6,0.4-0.8,1.2-0.5,1.9l3.2,7.2c0.4,0.7,1.1,1.2,2,1.2h8.2c1.2,0,2.2-1,2.2-2.2
		v-7.4v-0.7C20.6,13.9,19.9,13.2,19.1,13.2z"/>
	<path id="XMLID_00000085953248527405778970000002921109567479980969_" class="st1" d="M5.9,5.9c0-2.4,2-4.4,4.4-4.4s4.4,2,4.4,4.4
		c0,1.3-0.6,2.5-1.5,3.3V11c0.7-0.4,1.3-0.9,1.8-1.5c0.8-1,1.2-2.3,1.2-3.5c0-3.2-2.6-5.9-5.9-5.9S4.4,2.6,4.4,5.9
		c0,1.3,0.4,2.5,1.2,3.5c0.5,0.6,1.1,1.2,1.8,1.5V9.2C6.4,8.3,5.9,7.2,5.9,5.9z"/>
	<path id="XMLID_00000153684816567047860170000001508281249477015182_" class="st1" d="M12.4,3.8c-0.6-0.6-1.3-0.9-2.1-0.9
		c0,0,0,0,0,0c-1.6,0-2.8,1.2-2.9,2.8c0,0.4,0.1,0.9,0.2,1.3c0.3-0.6,0.7-1.1,1.3-1.5C9,4.9,9.6,4.4,10.3,4.4h0c0.4,0,0.8,0.2,1,0.4
		c0.2,0.2,0.3,0.4,0.4,0.7c0.6,0.3,1,0.8,1.3,1.5c0.1-0.3,0.2-0.7,0.2-1.1C13.2,5.1,12.9,4.4,12.4,3.8L12.4,3.8z"/>
</g>
</svg>
