<?xml version="1.0" encoding="utf-8"?>
<!-- Generator: Adobe Illustrator 19.2.1, SVG Export Plug-In . SVG Version: 6.00 Build 0)  -->
<svg version="1.1" id="Capa_1" xmlns="http://www.w3.org/2000/svg" xmlns:xlink="http://www.w3.org/1999/xlink" x="0px" y="0px"
	 viewBox="0 0 25 25" style="enable-background:new 0 0 25 25;" xml:space="preserve">
<style type="text/css">
	.st0{opacity:0.3;fill:#7DAD46;}
	.st1{fill:#7DAD46;}
</style>
<g>
	<path class="st0" d="M20.8,21.2c0,0.2-0.2,0.4-0.4,0.4c-0.2,0-0.4-0.2-0.4-0.4s0.2-0.4,0.4-0.4C20.6,20.8,20.8,21,20.8,21.2z"/>
	<path class="st0" d="M22.8,19.2c0,0.2-0.2,0.4-0.4,0.4s-0.4-0.2-0.4-0.4c0-0.2,0.2-0.4,0.4-0.4S22.8,19,22.8,19.2z"/>
	<path class="st0" d="M18.7,19.2c0,0.2-0.2,0.4-0.4,0.4s-0.4-0.2-0.4-0.4c0-0.2,0.2-0.4,0.4-0.4S18.7,19,18.7,19.2z"/>
	<path class="st0" d="M5.4,18.3v-1.8H4.5v1.8c0,0.2-0.2,0.4-0.4,0.4H2.2v0.9H4c0.2,0,0.4,0.2,0.4,0.4v1.8h0.9v-1.8
		c0-0.2,0.2-0.4,0.4-0.4h1.8v-0.9H5.8C5.6,18.8,5.4,18.6,5.4,18.3z"/>
	<path class="st1" d="M20.1,14.3H4.9c-2.1,0-4,1.3-4.6,3.3s0,4.2,1.7,5.5s4,1.4,5.7,0.2c0.1,0,0.2-0.1,0.2-0.1h9.3
		c0.1,0,0.2,0,0.2,0.1c0.8,0.5,1.7,0.8,2.7,0.8c2.7,0,4.9-2.2,4.9-4.9S22.8,14.3,20.1,14.3z M20.3,15.8c0.7,0,1.3,0.6,1.3,1.3
		s-0.6,1.3-1.3,1.3c-0.7,0-1.3-0.6-1.3-1.3S19.6,15.8,20.3,15.8z M8.5,20.1c0,0.2-0.2,0.4-0.4,0.4H6.2v1.8c0,0.2-0.2,0.4-0.4,0.4H4
		c-0.2,0-0.4-0.2-0.4-0.4v-1.8H1.8c-0.2,0-0.4-0.2-0.4-0.4v-1.8c0-0.2,0.2-0.4,0.4-0.4h1.8v-1.8c0-0.2,0.2-0.4,0.4-0.4h1.8
		c0.2,0,0.4,0.2,0.4,0.4v1.8H8c0.2,0,0.4,0.2,0.4,0.4V20.1z M11.6,21.4h-1.3c-0.2,0-0.4-0.2-0.4-0.4c0-0.2,0.2-0.4,0.4-0.4h1.3
		c0.2,0,0.4,0.2,0.4,0.4C12.1,21.2,11.9,21.4,11.6,21.4z M14.7,21.4h-1.3c-0.2,0-0.4-0.2-0.4-0.4c0-0.2,0.2-0.4,0.4-0.4h1.3
		c0.2,0,0.4,0.2,0.4,0.4C15.2,21.2,15,21.4,14.7,21.4z M17,19.2c0-0.7,0.6-1.3,1.3-1.3c0.7,0,1.3,0.6,1.3,1.3s-0.6,1.3-1.3,1.3
		C17.6,20.5,17,19.9,17,19.2z M20.3,22.5c-0.7,0-1.3-0.6-1.3-1.3s0.6-1.3,1.3-1.3c0.7,0,1.3,0.6,1.3,1.3S21.1,22.5,20.3,22.5z
		 M22.3,20.5c-0.7,0-1.3-0.6-1.3-1.3s0.6-1.3,1.3-1.3c0.7,0,1.3,0.6,1.3,1.3S23.1,20.5,22.3,20.5z"/>
	<path class="st1" d="M0.9,11.6h23.2V0.9H0.9L0.9,11.6z M1.9,1.8c0-0.2,0.2-0.4,0.4-0.4h20.4c0.2,0,0.4,0.2,0.4,0.4v8.9
		c0,0.2-0.2,0.4-0.4,0.4H2.3c-0.2,0-0.4-0.2-0.4-0.4V1.8z"/>
	<path class="st0" d="M20.8,17.2c0,0.2-0.2,0.4-0.4,0.4c-0.2,0-0.4-0.2-0.4-0.4s0.2-0.4,0.4-0.4C20.6,16.7,20.8,16.9,20.8,17.2z"/>
	<path class="st0" d="M22.3,2.2H2.7v8h19.5V2.2z M12.5,9.4c-0.2,0-0.3-0.1-0.4-0.3c-0.1-0.2,0-0.4,0.1-0.5L18,2.8
		c0.2-0.2,0.5-0.2,0.6,0s0.2,0.5,0,0.6l-5.8,5.8C12.7,9.3,12.6,9.4,12.5,9.4z M21.7,3.4l-5.8,5.8c-0.2,0.2-0.5,0.2-0.6,0
		c-0.2-0.2-0.2-0.5,0-0.6l5.8-5.8c0.2-0.2,0.5-0.2,0.6,0S21.9,3.3,21.7,3.4z"/>
	<path class="st1" d="M6.2,12.5h12.5v0.9H6.2V12.5z"/>
</g>
</svg>
