<?xml version="1.0" encoding="utf-8"?>
<!-- Generator: Adobe Illustrator 19.2.1, SVG Export Plug-In . SVG Version: 6.00 Build 0)  -->
<svg version="1.1" id="Capa_1" xmlns="http://www.w3.org/2000/svg" xmlns:xlink="http://www.w3.org/1999/xlink" x="0px" y="0px"
	 viewBox="0 0 17 17" style="enable-background:new 0 0 17 17;" xml:space="preserve">
<style type="text/css">
	.st0{opacity:0.3;fill:#FFFFFF;}
	.st1{fill:#FFFFFF;}
</style>
<g>
	<path class="st0" d="M4.9,0.5h7.1c0.3,0,0.6,0.3,0.6,0.6V14H4.3V1.1C4.3,0.8,4.6,0.5,4.9,0.5L4.9,0.5z"/>
	<path class="st0" d="M8,15.4c0-0.3,0.2-0.5,0.5-0.5c0.3,0,0.5,0.2,0.5,0.5c0,0.3-0.2,0.5-0.5,0.5C8.2,15.9,8,15.6,8,15.4L8,15.4z"
		/>
	<g>
		<path class="st1" d="M9.7,1.9H7.3C7.1,1.9,7,1.8,7,1.7s0.1-0.3,0.3-0.3h2.4c0.1,0,0.3,0.1,0.3,0.3S9.9,1.9,9.7,1.9z"/>
	</g>
	<path class="st1" d="M12.1,0H4.9C4.3,0,3.8,0.5,3.8,1.1v14.7c0,0.6,0.5,1.1,1.1,1.1h7.1c0.6,0,1.1-0.5,1.1-1.1V1.1
		C13.2,0.5,12.7,0,12.1,0z M8.5,15.9c-0.3,0-0.5-0.2-0.5-0.5l0,0c0-0.3,0.2-0.5,0.5-0.5c0.3,0,0.5,0.2,0.5,0.5
		C9,15.6,8.8,15.9,8.5,15.9z M12.7,14H4.3V1.1c0-0.3,0.3-0.6,0.6-0.6h7.1c0.3,0,0.6,0.3,0.6,0.6V14z"/>
</g>
</svg>
