<?xml version="1.0" encoding="utf-8"?>
<!-- Generator: Adobe Illustrator 19.2.1, SVG Export Plug-In . SVG Version: 6.00 Build 0)  -->
<svg version="1.1" id="Capa_1" xmlns="http://www.w3.org/2000/svg" xmlns:xlink="http://www.w3.org/1999/xlink" x="0px" y="0px"
	 viewBox="0 0 17 17" style="enable-background:new 0 0 17 17;" xml:space="preserve">
<style type="text/css">
	.st0{opacity:0.3;fill:#3197C9;enable-background:new    ;}
	.st1{fill:#3197C9;}
	.st2{fill:#3197C9;enable-background:new    ;}
</style>
<g>
	<path class="st0" d="M2.8,8.9c0,3.2,2.6,5.7,5.7,5.7s5.7-2.6,5.7-5.7c0-3.2-2.5-5.7-5.7-5.7S2.8,5.7,2.8,8.9z M7.8,8.6c0-1,0-2,0-3
		c0-0.3,0.3-0.6,0.6-0.6c0.3,0,0.6,0.3,0.6,0.6V6v2.4h1.8c0.3,0,0.6,0.3,0.6,0.6s-0.3,0.6-0.6,0.6c-0.8,0-1.6,0-2.4,0
		C8.1,9.6,7.8,9.3,7.8,9C7.8,8.8,7.8,8.7,7.8,8.6L7.8,8.6z"/>
	<path class="st1" d="M16.2,6.4c-0.9-3-3.6-5.1-6.6-5.6c0-0.1,0.1-0.2,0.1-0.3c0-0.3-0.2-0.5-0.3-0.6C9-0.1,8.7,0,8.5,0.2
		C8.3,0.4,8.1,0.6,7.8,0.8C7.8,0.8,7.6,0.9,7.6,1C7.5,1.1,7.5,1.2,7.5,1.4c0,0.3,0.2,0.4,0.3,0.7C8,2.2,8.2,2.5,8.4,2.7
		c0.3,0.4,1.1,0.1,1.1-0.4v0c0,0,0-0.1,0-0.1c2.2,0.3,4.2,1.8,5.2,3.8c1.1,2.4,0.8,5.3-0.9,7.3c-1.7,2-4.4,2.9-7,2.2
		c-2.5-0.7-4.4-2.7-4.9-5.2C1.2,7.1,3,4,5.8,2.7C6.1,2.5,6.2,2.1,6,1.8C5.8,1.5,5.5,1.4,5.2,1.6C2.2,3,0.3,6.1,0.5,9.4
		c0.2,3.1,2.1,5.8,5,7c2.9,1.2,6.3,0.6,8.5-1.5C16.2,12.7,17.1,9.4,16.2,6.4L16.2,6.4z"/>
	<path class="st2" d="M7.8,8.6c0-1,0-2,0-3c0-0.3,0.3-0.6,0.6-0.6c0.3,0,0.6,0.3,0.6,0.6V6v2.4h1.8c0.3,0,0.6,0.3,0.6,0.6
		s-0.3,0.6-0.6,0.6c-0.8,0-1.6,0-2.4,0C8.1,9.6,7.8,9.3,7.8,9C7.8,8.8,7.8,8.7,7.8,8.6L7.8,8.6z"/>
</g>
</svg>
