<?xml version="1.0" encoding="utf-8"?>
<!-- Generator: Adobe Illustrator 24.0.2, SVG Export Plug-In . SVG Version: 6.00 Build 0)  -->
<svg version="1.1" id="Capa_1" xmlns="http://www.w3.org/2000/svg" xmlns:xlink="http://www.w3.org/1999/xlink" x="0px" y="0px"
	 viewBox="0 0 20 20" style="enable-background:new 0 0 20 20;" xml:space="preserve">
<style type="text/css">
	.st0{fill:#FFFFFF;}
</style>
<g>
	<g>
		<circle class="st0" cx="6.3" cy="6.3" r="3.4"/>
		<path class="st0" d="M12,13c-0.4-1.7-3-2.6-3-2.6s-1.1,0.8-2.6,0.8c-1.5,0-2.5-0.8-2.5-0.8s-2.5,0.4-3.4,2
			c-0.9,1.7-0.3,4.6,0.6,4.6s8.6,0.1,9.8,0.1S12.4,14.7,12,13z"/>
	</g>
	<g>
		<circle class="st0" cx="15.1" cy="6.2" r="2.9"/>
		<path class="st0" d="M19.8,11.7c-0.3-1.4-2.4-1.9-2.4-1.9s-1,0.7-2.3,0.7c-1.3,0-2.2-0.7-2.2-0.7s-1.2,0.1-2,0.8c2.6,0.6,2,5,2,5
			s5,0.1,6.1,0.1C20.1,15.6,20.1,13.1,19.8,11.7z"/>
	</g>
</g>
<g>
</g>
<g>
</g>
<g>
</g>
<g>
</g>
<g>
</g>
<g>
</g>
<g>
</g>
<g>
</g>
<g>
</g>
<g>
</g>
<g>
</g>
<g>
</g>
<g>
</g>
<g>
</g>
<g>
</g>
</svg>
