<?xml version="1.0" encoding="utf-8"?>
<!-- Generator: Adobe Illustrator 19.2.1, SVG Export Plug-In . SVG Version: 6.00 Build 0)  -->
<svg version="1.1" id="Capa_1" xmlns="http://www.w3.org/2000/svg" xmlns:xlink="http://www.w3.org/1999/xlink" x="0px" y="0px"
	 viewBox="0 0 17 17" style="enable-background:new 0 0 17 17;" xml:space="preserve">
<style type="text/css">
	.st0{opacity:0.3;fill-rule:evenodd;clip-rule:evenodd;fill:#FFFFFF;enable-background:new    ;}
	.st1{fill:#FFFFFF;}
</style>
<g>
	<path id="Combined-Shape_00000065053249094452992100000016099664717275909274_" class="st0" d="M7.6,16.1v-2.7
		c0-0.5,0.4-0.9,0.9-0.9s0.9,0.4,0.9,0.9v2.7h1.4c0.3,0,0.5,0.2,0.5,0.5c0,0.3-0.2,0.5-0.5,0.5H6.2c-0.3,0-0.5-0.2-0.5-0.5
		c0-0.3,0.2-0.5,0.5-0.5H7.6z"/>
	<path class="st0" d="M13,5.2v3.9c0,0.9-0.3,1.3-1.2,1.3H5.2C4.3,10.4,4,10,4,9.1V5.2H2.1v7.3h12.7V5.2H13z"/>
	<path class="st1" d="M14.6,3.4H13v1.8h1.9v7.3H2.1V5.2H4V3.4H2.4c-1.1,0-2,0.8-2,1.8v7.3c0,1,0.9,1.8,2,1.8h12.3c1.1,0,2-0.8,2-1.8
		V5.2C16.7,4.2,15.8,3.4,14.6,3.4z"/>
	<path class="st1" d="M12.1,2.1l-2.3-2C9.7,0.1,9.5,0,9.3,0H5.5C4.6,0,4.6,0.1,4.6,0.9v7.9c0,0.9,0,0.9,0.9,0.9h6
		c0.9,0,0.9-0.1,0.9-0.9V2.7C12.4,2.5,12.3,2.3,12.1,2.1z M7.5,7.3H6.1c-0.3,0-0.5-0.2-0.5-0.5c0-0.3,0.2-0.5,0.5-0.5h1.5
		C7.8,6.3,8,6.6,8,6.8C8,7.1,7.8,7.3,7.5,7.3z M9.5,5.4H6.1c-0.3,0-0.5-0.2-0.5-0.5c0-0.3,0.2-0.5,0.5-0.5h3.4
		c0.3,0,0.5,0.2,0.5,0.5C10,5.1,9.7,5.4,9.5,5.4z"/>
</g>
</svg>
