<?xml version="1.0" encoding="utf-8"?>
<!-- Generator: Adobe Illustrator 19.2.1, SVG Export Plug-In . SVG Version: 6.00 Build 0)  -->
<svg version="1.1" id="Capa_1" xmlns="http://www.w3.org/2000/svg" xmlns:xlink="http://www.w3.org/1999/xlink" x="0px" y="0px"
	 viewBox="0 0 25 25" style="enable-background:new 0 0 25 25;" xml:space="preserve">
<style type="text/css">
	.st0{fill:#FFFFFF;}
</style>
<path class="st0" d="M0.1,25l1.8-6.4c-1.1-1.9-1.7-4-1.7-6.2C0.2,5.6,5.7,0,12.6,0c3.3,0,6.4,1.3,8.8,3.6c2.3,2.3,3.6,5.5,3.6,8.8
	c0,6.8-5.6,12.4-12.4,12.4c0,0,0,0,0,0h0c-2.1,0-4.1-0.5-5.9-1.5L0.1,25z M6.9,21l0.4,0.2c1.6,0.9,3.4,1.4,5.2,1.4h0
	c5.7,0,10.3-4.6,10.3-10.3c0-2.8-1.1-5.3-3-7.3c-1.9-1.9-4.5-3-7.3-3C6.9,2.1,2.3,6.7,2.3,12.4c0,1.9,0.5,3.8,1.6,5.5l0.2,0.4
	l-1,3.8L6.9,21z M18.8,15.3c-0.1-0.1-0.3-0.2-0.6-0.4c-0.3-0.2-1.8-0.9-2.1-1c-0.3-0.1-0.5-0.2-0.7,0.2c-0.2,0.3-0.8,1-1,1.2
	c-0.2,0.2-0.4,0.2-0.7,0.1c-0.3-0.2-1.3-0.5-2.5-1.5c-0.9-0.8-1.5-1.8-1.7-2.1c-0.2-0.3,0-0.5,0.1-0.6c0.1-0.1,0.3-0.4,0.5-0.5
	c0.2-0.2,0.2-0.3,0.3-0.5c0.1-0.2,0.1-0.4,0-0.5c-0.1-0.2-0.7-1.7-1-2.3C9.2,6.6,8.9,6.7,8.8,6.7c-0.2,0-0.4,0-0.6,0
	C8,6.7,7.6,6.7,7.3,7.1C7.1,7.4,6.3,8.1,6.3,9.6c0,1.5,1.1,3,1.3,3.2c0.2,0.2,2.2,3.3,5.3,4.7c0.7,0.3,1.3,0.5,1.8,0.7
	c0.7,0.2,1.4,0.2,1.9,0.1c0.6-0.1,1.8-0.7,2.1-1.5C18.9,16.1,18.9,15.5,18.8,15.3z"/>
</svg>
